<svg width="81" height="43" viewBox="0 0 81 43" fill="none" xmlns="http://www.w3.org/2000/svg">
<mask id="path-1-outside-1_120_70526" maskUnits="userSpaceOnUse" x="-2" y="-2" width="85" height="47" fill="black">
<rect fill="white" x="-2" y="-2" width="85" height="47"/>
<path d="M0.5 38V0.499997H20.5V5.5H5.5V15.5H20.5V20.5H5.5V38H0.5ZM30.6798 5.5V0.499997H45.6798V5.5H30.6798ZM25.6798 38V5.5H30.6798V20.5H45.6798V5.5H50.6798V38H45.6798V25.5H30.6798V38H25.6798ZM60.84 5.5V0.499997H75.84V5.5H60.84ZM55.84 33V5.5H60.84V33H55.84ZM75.84 33V5.5H80.84V33H75.84ZM65.84 43V38H60.84V33H65.84V28H70.84V33H75.84V38H70.84V43H65.84Z"/>
</mask>
<path d="M0.5 38V0.499997H20.5V5.5H5.5V15.5H20.5V20.5H5.5V38H0.5ZM30.6798 5.5V0.499997H45.6798V5.5H30.6798ZM25.6798 38V5.5H30.6798V20.5H45.6798V5.5H50.6798V38H45.6798V25.5H30.6798V38H25.6798ZM60.84 5.5V0.499997H75.84V5.5H60.84ZM55.84 33V5.5H60.84V33H55.84ZM75.84 33V5.5H80.84V33H75.84ZM65.84 43V38H60.84V33H65.84V28H70.84V33H75.84V38H70.84V43H65.84Z" fill="white"/>
<path d="M0.5 38H-1.5V40H0.5V38ZM0.5 0.499996V-1.5H-1.5V0.499996H0.5ZM20.5 0.499996H22.5V-1.5H20.5V0.499996ZM20.5 5.5V7.5H22.5V5.5H20.5ZM5.5 5.5V3.5H3.5V5.5H5.5ZM5.5 15.5H3.5V17.5H5.5V15.5ZM20.5 15.5H22.5V13.5H20.5V15.5ZM20.5 20.5V22.5H22.5V20.5H20.5ZM5.5 20.5V18.5H3.5V20.5H5.5ZM5.5 38V40H7.5V38H5.5ZM2.5 38V0.499996H-1.5V38H2.5ZM0.5 2.5H20.5V-1.5H0.5V2.5ZM18.5 0.499996V5.5H22.5V0.499996H18.5ZM20.5 3.5H5.5V7.5H20.5V3.5ZM3.5 5.5V15.5H7.5V5.5H3.5ZM5.5 17.5H20.5V13.5H5.5V17.5ZM18.5 15.5V20.5H22.5V15.5H18.5ZM20.5 18.5H5.5V22.5H20.5V18.5ZM3.5 20.5V38H7.5V20.5H3.5ZM5.5 36H0.5V40H5.5V36ZM30.6798 5.5H28.6798V7.5H30.6798V5.5ZM30.6798 0.499996V-1.5H28.6798V0.499996H30.6798ZM45.6798 0.499996H47.6798V-1.5H45.6798V0.499996ZM45.6798 5.5V7.5H47.6798V5.5H45.6798ZM25.6798 38H23.6798V40H25.6798V38ZM25.6798 5.5V3.5H23.6798V5.5H25.6798ZM30.6798 5.5H32.6798V3.5H30.6798V5.5ZM30.6798 20.5H28.6798V22.5H30.6798V20.5ZM45.6798 20.5V22.5H47.6798V20.5H45.6798ZM45.6798 5.5V3.5H43.6798V5.5H45.6798ZM50.6798 5.5H52.6798V3.5H50.6798V5.5ZM50.6798 38V40H52.6798V38H50.6798ZM45.6798 38H43.6798V40H45.6798V38ZM45.6798 25.5H47.6798V23.5H45.6798V25.5ZM30.6798 25.5V23.5H28.6798V25.5H30.6798ZM30.6798 38V40H32.6798V38H30.6798ZM32.6798 5.5V0.499996H28.6798V5.5H32.6798ZM30.6798 2.5H45.6798V-1.5H30.6798V2.5ZM43.6798 0.499996V5.5H47.6798V0.499996H43.6798ZM45.6798 3.5H30.6798V7.5H45.6798V3.5ZM27.6798 38V5.5H23.6798V38H27.6798ZM25.6798 7.5H30.6798V3.5H25.6798V7.5ZM28.6798 5.5V20.5H32.6798V5.5H28.6798ZM30.6798 22.5H45.6798V18.5H30.6798V22.5ZM47.6798 20.5V5.5H43.6798V20.5H47.6798ZM45.6798 7.5H50.6798V3.5H45.6798V7.5ZM48.6798 5.5V38H52.6798V5.5H48.6798ZM50.6798 36H45.6798V40H50.6798V36ZM47.6798 38V25.5H43.6798V38H47.6798ZM45.6798 23.5H30.6798V27.5H45.6798V23.5ZM28.6798 25.5V38H32.6798V25.5H28.6798ZM30.6798 36H25.6798V40H30.6798V36ZM60.84 5.5H58.84V7.5H60.84V5.5ZM60.84 0.499996V-1.5H58.84V0.499996H60.84ZM75.84 0.499996H77.84V-1.5H75.84V0.499996ZM75.84 5.5V7.5H77.84V5.5H75.84ZM55.84 33H53.84V35H55.84V33ZM55.84 5.5V3.5H53.84V5.5H55.84ZM60.84 5.5H62.84V3.5H60.84V5.5ZM60.84 33V35H62.84V33H60.84ZM75.84 33H73.84V35H75.84V33ZM75.84 5.5V3.5H73.84V5.5H75.84ZM80.84 5.5H82.84V3.5H80.84V5.5ZM80.84 33V35H82.84V33H80.84ZM65.84 43H63.84V45H65.84V43ZM65.84 38H67.84V36H65.84V38ZM60.84 38H58.84V40H60.84V38ZM60.84 33V31H58.84V33H60.84ZM65.84 33V35H67.84V33H65.84ZM65.84 28V26H63.84V28H65.84ZM70.84 28H72.84V26H70.84V28ZM70.84 33H68.84V35H70.84V33ZM75.84 33H77.84V31H75.84V33ZM75.84 38V40H77.84V38H75.84ZM70.84 38V36H68.84V38H70.84ZM70.84 43V45H72.84V43H70.84ZM62.84 5.5V0.499996H58.84V5.5H62.84ZM60.84 2.5H75.84V-1.5H60.84V2.5ZM73.84 0.499996V5.5H77.84V0.499996H73.84ZM75.84 3.5H60.84V7.5H75.84V3.5ZM57.84 33V5.5H53.84V33H57.84ZM55.84 7.5H60.84V3.5H55.84V7.5ZM58.84 5.5V33H62.84V5.5H58.84ZM60.84 31H55.84V35H60.84V31ZM77.84 33V5.5H73.84V33H77.84ZM75.84 7.5H80.84V3.5H75.84V7.5ZM78.84 5.5V33H82.84V5.5H78.84ZM80.84 31H75.84V35H80.84V31ZM67.84 43V38H63.84V43H67.84ZM65.84 36H60.84V40H65.84V36ZM62.84 38V33H58.84V38H62.84ZM60.84 35H65.84V31H60.84V35ZM67.84 33V28H63.84V33H67.84ZM65.84 30H70.84V26H65.84V30ZM68.84 28V33H72.84V28H68.84ZM70.84 35H75.84V31H70.84V35ZM73.84 33V38H77.84V33H73.84ZM75.84 36H70.84V40H75.84V36ZM68.84 38V43H72.84V38H68.84ZM70.84 41H65.84V45H70.84V41Z" fill="black" mask="url(#path-1-outside-1_120_70526)"/>
</svg>
