<svg width="106" height="110" viewBox="0 0 106 110" fill="none" xmlns="http://www.w3.org/2000/svg">
<rect x="0.5" y="0.5" width="105" height="109" rx="1.5" fill="white"/>
<rect x="0.5" y="0.5" width="105" height="109" rx="1.5" stroke="black"/>
<path d="M55.1245 31.3803C54.7692 30.9918 54.2672 30.7705 53.7407 30.7705C53.2142 30.7705 52.7122 30.9918 52.357 31.3803L42.3569 42.3178C41.6582 43.0821 41.7113 44.2681 42.4755 44.9668C43.2398 45.6656 44.4258 45.6125 45.1245 44.8482L51.8657 37.475V65.1455C51.8657 66.181 52.7052 67.0205 53.7407 67.0205C54.7762 67.0205 55.6157 66.181 55.6157 65.1455V37.475L62.357 44.8482C63.0557 45.6125 64.2417 45.6656 65.006 44.9668C65.7702 44.2681 65.8232 43.0821 65.1245 42.3178L55.1245 31.3803Z" fill="#2300F7"/>
<path d="M33.1157 62.6455C33.1157 61.61 32.2763 60.7705 31.2407 60.7705C30.2052 60.7705 29.3657 61.61 29.3657 62.6455V62.7828C29.3657 66.2018 29.3656 68.9575 29.657 71.125C29.9596 73.3753 30.6068 75.2698 32.1116 76.7745C33.6164 78.2795 35.5111 78.9268 37.7613 79.2293C39.9288 79.5205 42.6846 79.5205 46.1035 79.5205H61.378C64.797 79.5205 67.5527 79.5205 69.7202 79.2293C71.9705 78.9268 73.865 78.2795 75.37 76.7745C76.8747 75.2698 77.522 73.3753 77.8245 71.125C78.1157 68.9575 78.1157 66.2018 78.1157 62.7828V62.6455C78.1157 61.61 77.2762 60.7705 76.2407 60.7705C75.2052 60.7705 74.3657 61.61 74.3657 62.6455C74.3657 66.234 74.3617 68.7368 74.108 70.6253C73.8612 72.4598 73.4102 73.431 72.7182 74.123C72.0262 74.815 71.055 75.266 69.2205 75.5128C67.332 75.7665 64.8292 75.7705 61.2407 75.7705H46.2407C42.6522 75.7705 40.1494 75.7665 38.261 75.5128C36.4266 75.266 35.4551 74.815 34.7632 74.123C34.0713 73.431 33.6202 72.4598 33.3736 70.6253C33.1197 68.7368 33.1157 66.234 33.1157 62.6455Z" fill="#2300F7"/>
</svg>
