<svg width="13" height="13" viewBox="0 0 13 13" fill="none" xmlns="http://www.w3.org/2000/svg">
<path d="M11.2202 5.17432H7.13661C6.24998 5.17432 5.52869 5.90379 5.52869 6.80035V10.93C5.52869 11.8266 6.25003 12.556 7.13661 12.556H11.2202C12.1068 12.556 12.8281 11.8265 12.8281 10.93V6.80035C12.8281 5.90379 12.1068 5.17432 11.2202 5.17432ZM12.0625 10.93C12.0625 11.3997 11.6846 11.7818 11.2202 11.7818H7.13661C6.67219 11.7818 6.29435 11.3997 6.29435 10.93V6.8004C6.29435 6.33075 6.67219 5.94865 7.13661 5.94865H11.2202C11.6846 5.94865 12.0625 6.33075 12.0625 6.8004V10.93Z" fill="white"/>
<path d="M10.67 9.82605L9.71562 8.86091L10.67 7.89577C10.8195 7.74461 10.8195 7.49943 10.67 7.34827C10.5205 7.19706 10.2781 7.19706 10.1286 7.34827L9.17422 8.31341L8.21983 7.34827C8.0703 7.19706 7.8279 7.19706 7.67843 7.34827C7.5289 7.49947 7.5289 7.74461 7.67843 7.89577L8.63281 8.86091L7.67843 9.82605C7.5289 9.97726 7.5289 10.2224 7.67843 10.3736C7.75316 10.4491 7.85116 10.4869 7.9491 10.4869C8.04705 10.4869 8.14504 10.4492 8.21978 10.3736L9.17417 9.40841L10.1286 10.3736C10.2033 10.4491 10.3013 10.4869 10.3992 10.4869C10.4972 10.4869 10.5952 10.4492 10.6699 10.3736C10.8195 10.2223 10.8195 9.97721 10.67 9.82605Z" fill="white"/>
<path d="M6.51964 0H2.43605C1.54942 0 0.828125 0.72947 0.828125 1.62603V5.75564C0.828125 6.65226 1.54947 7.38168 2.43605 7.38168H6.51964C7.40627 7.38168 8.12756 6.65221 8.12756 5.75564V1.62603C8.12756 0.72947 7.40622 0 6.51964 0ZM7.36191 5.75569C7.36191 6.22534 6.98406 6.60744 6.51964 6.60744H2.43605C1.97163 6.60744 1.59379 6.22534 1.59379 5.75569V1.62603C1.59379 1.15638 1.97163 0.774286 2.43605 0.774286H6.51964C6.98406 0.774286 7.36191 1.15638 7.36191 1.62603V5.75569Z" fill="white"/>
<path d="M6.79038 2.17835C6.64091 2.02714 6.39846 2.02714 6.24898 2.17835L4.06948 4.3824L3.11509 3.41726C2.96557 3.26606 2.72316 3.26606 2.57369 3.41726C2.42417 3.56847 2.42417 3.81361 2.57369 3.96476L3.79875 5.20363C3.87349 5.27921 3.97148 5.31702 4.06943 5.31702C4.16738 5.31702 4.26537 5.27926 4.34011 5.20363L6.79029 2.72585C6.9399 2.57464 6.9399 2.3295 6.79038 2.17835Z" fill="white"/>
</svg>
