<svg width="11" height="12" viewBox="0 0 11 12" fill="none" xmlns="http://www.w3.org/2000/svg">
<path d="M9.11224 2.22693H1.59404C1.32453 2.22753 1.06623 2.33423 0.875653 2.5237C0.685079 2.71316 0.577752 2.96996 0.577148 3.2379V10.7122C0.577752 10.9802 0.685079 11.237 0.875653 11.4264C1.06623 11.6159 1.32453 11.7226 1.59404 11.7232H9.11224C9.38175 11.7226 9.64005 11.6159 9.83062 11.4264C10.0212 11.237 10.1285 10.9802 10.1291 10.7122V3.2379C10.1285 2.96996 10.0212 2.71316 9.83062 2.5237C9.64005 2.33423 9.38175 2.22753 9.11224 2.22693Z" stroke="black" stroke-opacity="0.81" stroke-width="0.5" stroke-miterlimit="10" stroke-linecap="round"/>
<path d="M2.62231 5.56628H5.04459" stroke="black" stroke-opacity="0.81" stroke-width="0.5" stroke-miterlimit="10" stroke-linecap="round"/>
<path d="M2.62231 7.64526H7.86676" stroke="black" stroke-opacity="0.81" stroke-width="0.5" stroke-miterlimit="10" stroke-linecap="round"/>
<path d="M3.87915 1V3.2264" stroke="black" stroke-opacity="0.81" stroke-width="0.5" stroke-miterlimit="10" stroke-linecap="round"/>
<path d="M6.82715 1V3.2264" stroke="black" stroke-opacity="0.81" stroke-width="0.5" stroke-miterlimit="10" stroke-linecap="round"/>
</svg>
