<svg width="93" height="158" viewBox="0 0 93 158" fill="none" xmlns="http://www.w3.org/2000/svg">
<path d="M5.14221 10L83.2628 14.228V142.477L5.14221 146V10Z" fill="white"/>
<path d="M28.7029 157.455C28.7029 157.455 27.3393 156.376 26.5916 156.232C26.4598 109.466 26.5916 58.5137 26.5916 11.8944C21.0809 11.8944 11.7029 11.8944 6.23293 11.8944C6.23293 54.7459 6.23293 102.919 6.23293 145.678C2.77201 145.678 3.46011 145.684 0.134521 145.684C0.134521 99.3448 0.134521 53.091 0.134521 6.71391C8.98749 6.71391 17.7565 6.71391 26.5916 6.71391C26.5916 4.39406 26.5916 2.19703 26.5916 0C27.2075 0 27.8234 -1.04999e-08 28.6134 0.119604C31.4912 0.675502 34.2053 1.05328 36.896 1.56017C42.6441 2.64304 48.371 3.84448 54.1235 4.90141C60.6077 6.09277 67.1179 7.13706 73.6032 8.3224C79.8302 9.46051 86.0399 10.6973 92.2767 11.8944C92.2767 56.465 92.2767 101.082 92.2767 145.678C89.4663 146.16 86.7174 146.598 83.9814 147.107C78.2286 148.179 72.4885 149.322 66.732 150.372C59.9454 151.609 59.9454 151.495 50.7113 153.168C45.2898 154.15 39.8787 155.192 34.4675 156.232C32.5391 156.603 30.624 157.046 28.7029 157.455ZM39.5468 77.5844C39.5467 76.9712 42.6082 78.1952 42.5703 77.5844C42.489 76.2747 43.7307 77.8483 42.5703 77.5844C41.1133 77.2532 43.3262 75.8607 42.5703 77.5844C41.9446 79.0112 42.0623 76.0144 42.5703 77.5844C42.9338 73.1173 37.9329 77.1374 39.5468 77.5844C40.0243 76.9007 39.2684 78.6875 39.5468 77.5844Z" fill="#141720"/>
<ellipse cx="41.2709" cy="76.0051" rx="3.0161" ry="3.0753" fill="white"/>
</svg>
