<svg width="10" height="10" viewBox="0 0 10 10" fill="none" xmlns="http://www.w3.org/2000/svg">
<path d="M5.15219 0.902344C5.29068 0.902344 5.35003 0.955545 5.35003 0.955545V4.28947C5.35003 4.3072 5.2709 4.3604 5.15219 4.3604H5.13241C5.01371 4.3604 4.95435 4.3072 4.93457 4.3072V0.955545C4.95435 0.937811 5.03349 0.902344 5.15219 0.902344Z" fill="white" stroke="white" stroke-width="0.1" stroke-miterlimit="10"/>
<path d="M5.05318 9.60963C2.75825 9.60963 0.878784 7.92494 0.878784 5.86784C0.878784 4.39594 1.72949 3.11912 3.09458 2.49845C3.11436 2.49845 3.13415 2.48071 3.15393 2.48071C3.17371 2.48071 3.17371 2.48071 3.1935 2.48071C3.23307 2.49845 3.25285 2.51618 3.27263 2.55165C3.29242 2.58711 3.29242 2.62258 3.27263 2.64032C3.25285 2.67578 3.23307 2.69352 3.1935 2.71125C1.92733 3.27873 1.13597 4.48461 1.13597 5.8501C1.13597 7.78307 2.87696 9.34363 5.0334 9.34363C7.18984 9.34363 8.93082 7.78307 8.93082 5.8501C8.93082 4.48461 8.13947 3.29646 6.89308 2.71125C6.83373 2.67578 6.79416 2.60485 6.83373 2.55165C6.8733 2.49845 6.95244 2.46298 7.01179 2.49845C8.35709 3.11912 9.2078 4.39595 9.2078 5.8501C9.22758 7.94267 7.34811 9.60963 5.05318 9.60963Z" fill="white" stroke="white" stroke-width="0.3" stroke-miterlimit="10"/>
</svg>
