<svg width="10" height="14" viewBox="0 0 10 14" fill="none" xmlns="http://www.w3.org/2000/svg">
<path fill-rule="evenodd" clip-rule="evenodd" d="M8.37727 12.4036C8.37727 12.6282 8.22254 12.8098 8.03112 12.8098C7.8397 12.8098 7.68497 12.6282 7.68497 12.4036V8.34106C7.68497 8.11681 7.8397 7.93481 8.03112 7.93481C8.22254 7.93481 8.37727 8.11681 8.37727 8.34106V12.4036ZM8.37727 7.12231H7.68497C7.30281 7.12231 6.99266 7.48631 6.99266 7.93481V12.8098C6.99266 13.2583 7.30281 13.6223 7.68497 13.6223H8.37727C8.75943 13.6223 9.06958 13.2583 9.06958 12.8098V7.93481C9.06958 7.48631 8.75943 7.12231 8.37727 7.12231ZM1.4542 12.4036C1.4542 12.6282 1.29946 12.8098 1.10804 12.8098C0.916619 12.8098 0.761888 12.6282 0.761888 12.4036V5.49731C0.761888 5.27306 0.916619 5.09106 1.10804 5.09106C1.29946 5.09106 1.4542 5.27306 1.4542 5.49731V12.4036ZM1.4542 4.27856H0.761888C0.379734 4.27856 0.0695801 4.64256 0.0695801 5.09106V12.8098C0.0695801 13.2583 0.379734 13.6223 0.761888 13.6223H1.4542C1.83635 13.6223 2.1465 13.2583 2.1465 12.8098V5.09106C2.1465 4.64256 1.83635 4.27856 1.4542 4.27856ZM4.91573 12.4036C4.91573 12.6282 4.761 12.8098 4.56958 12.8098C4.37816 12.8098 4.22343 12.6282 4.22343 12.4036V1.84106C4.22343 1.61641 4.37816 1.43481 4.56958 1.43481C4.761 1.43481 4.91573 1.61641 4.91573 1.84106V12.4036ZM4.91573 0.622314H4.22343C3.84127 0.622314 3.53112 0.986314 3.53112 1.43481V12.8098C3.53112 13.2583 3.84127 13.6223 4.22343 13.6223H4.91573C5.29789 13.6223 5.60804 13.2583 5.60804 12.8098V1.43481C5.60804 0.986314 5.29789 0.622314 4.91573 0.622314Z" fill="white"/>
</svg>
