<svg width="132" height="144" viewBox="0 0 132 144" fill="none" xmlns="http://www.w3.org/2000/svg">
<path d="M90.9455 44.8591H40.8328L64.8495 22.5412V14.6296V3.05733V0.695648H66.8769V2.99829H78.1574V14.6296H66.9288V22.5412L90.9455 44.8591ZM131.389 116.95V135.548H90.9455V143.696H40.8328V135.548H0.38916V116.95H3.97606V61.1548H40.8328V47.2208H90.9975V61.1548H127.854V116.95H131.389ZM13.1773 85.5392H8.08281V112.285H13.1773V85.5392ZM13.1773 75.0887H8.08281V80.8748H13.1773V75.0887ZM22.3784 85.5392H17.284V112.285H22.3784V85.5392ZM22.3784 75.0887H17.284V80.8748H22.3784V75.0887ZM31.5796 85.5392H26.4852V112.285H31.5796V85.5392ZM31.5796 75.0887H26.4852V80.8748H31.5796V75.0887ZM40.8328 85.5392H35.7384V112.285H40.8328V85.5392ZM40.8328 75.0887H35.7384V80.8748H40.8328V75.0887ZM76.6499 121.614H83.8237V61.1548H76.6499V121.614ZM62.3023 121.614H69.4761V61.1548H62.3023V121.614ZM47.9546 121.614H55.1284V61.1548H47.9546V121.614ZM87.5665 138.323H44.2118V140.212H87.5665V138.323ZM87.5665 133.363H44.2118V135.253H87.5665V133.363ZM96.0919 85.5392H90.9975V112.285H96.0919V85.5392ZM96.0919 75.0887H90.9975V80.8748H96.0919V75.0887ZM105.293 85.5392H100.199V112.285H105.293V85.5392ZM105.293 75.0887H100.199V80.8748H105.293V75.0887ZM114.494 85.5392H109.4V112.285H114.494V85.5392ZM114.494 75.0887H109.4V80.8748H114.494V75.0887ZM123.696 85.5392H118.601V112.285H123.696V85.5392ZM123.696 75.0887H118.601V80.8748H123.696V75.0887Z" fill="black"/>
</svg>
