<svg width="10" height="12" viewBox="0 0 10 12" fill="none" xmlns="http://www.w3.org/2000/svg">
<path d="M8.21304 11.2263H1.01304C0.774426 11.2261 0.545667 11.1432 0.376944 10.9959C0.20822 10.8486 0.113311 10.6489 0.113037 10.4406V1.01203C0.113275 0.803712 0.208173 0.603983 0.376904 0.456678C0.545635 0.309374 0.774415 0.226526 1.01304 0.226318H8.21304C8.45165 0.226558 8.68041 0.309415 8.84913 0.456713C9.01785 0.604011 9.11276 0.803722 9.11304 1.01203V7.54061L6.86304 6.55847L4.61304 7.54061V1.01203H1.01304V10.4406H8.21304V8.86918H9.11304V10.4406C9.11272 10.6489 9.01779 10.8486 8.84908 10.9959C8.68037 11.1432 8.45163 11.226 8.21304 11.2263ZM6.86304 5.67988L8.21304 6.26917V1.01203H5.51304V6.26917L6.86304 5.67988Z" fill="#EFEFEF"/>
</svg>
