<svg width="12" height="11" viewBox="0 0 12 11" fill="none" xmlns="http://www.w3.org/2000/svg">
<path d="M10.0659 6.21208C10.0887 6.05543 10.1009 5.89767 10.1025 5.73968C10.1009 5.5817 10.0887 5.42394 10.0659 5.26729L11.1986 4.46658C11.2497 4.4313 11.2847 4.38024 11.2968 4.32315C11.3088 4.26606 11.2971 4.20697 11.264 4.15716L10.1915 2.47779C10.1604 2.42742 10.11 2.38905 10.0498 2.3699C9.98953 2.35076 9.92363 2.35217 9.86447 2.37387L8.52773 2.86043C8.24958 2.66876 7.94541 2.51 7.62262 2.38804L7.4212 1.10549C7.41231 1.04873 7.38088 0.996833 7.33275 0.95946C7.28462 0.922087 7.22308 0.901791 7.15961 0.902355H5.00932C4.94584 0.901791 4.88431 0.922087 4.83618 0.95946C4.78805 0.996833 4.75661 1.04873 4.74773 1.10549L4.5463 2.38804C4.2231 2.50924 3.91883 2.66805 3.64119 2.86043L2.29923 2.37387C2.24007 2.35217 2.17416 2.35076 2.11393 2.3699C2.0537 2.38905 2.0033 2.42742 1.97224 2.47779L0.899711 4.15716C0.866544 4.20697 0.854877 4.26606 0.866943 4.32315C0.879008 4.38024 0.913959 4.4313 0.965109 4.46658L2.09519 5.26729C2.07249 5.42395 2.06026 5.5817 2.05856 5.73968C2.06017 5.89767 2.0724 6.05543 2.09519 6.21208L0.965109 7.01279C0.913959 7.04807 0.879008 7.09913 0.866943 7.15622C0.854877 7.2133 0.866544 7.2724 0.899711 7.32221L1.97224 9.00158C2.0033 9.05195 2.0537 9.09032 2.11393 9.10946C2.17416 9.12861 2.24007 9.1272 2.29923 9.1055L3.63596 8.61893C3.91411 8.81061 4.21829 8.96937 4.54107 9.09133L4.7425 10.3739C4.75138 10.4306 4.78282 10.4825 4.83095 10.5199C4.87907 10.5573 4.94061 10.5776 5.00409 10.577H7.14914C7.21262 10.5776 7.27416 10.5573 7.32228 10.5199C7.37041 10.4825 7.40185 10.4306 7.41073 10.3739L7.61216 9.09133C7.93536 8.97013 8.23964 8.81132 8.51727 8.61893L9.854 9.1055C9.91316 9.1272 9.97907 9.12861 10.0393 9.10946C10.0995 9.09032 10.1499 9.05195 10.181 9.00158L11.2535 7.32221C11.2867 7.2724 11.2984 7.2133 11.2863 7.15622C11.2742 7.09913 11.2393 7.04807 11.1881 7.01279L10.0659 6.21208ZM6.08185 7.43558C5.71026 7.43605 5.34686 7.33699 5.03765 7.15092C4.72843 6.96486 4.48728 6.70016 4.34472 6.39032C4.20216 6.08047 4.1646 5.73941 4.23677 5.41028C4.30895 5.08115 4.48763 4.77875 4.7502 4.54134C5.01277 4.30393 5.34743 4.14217 5.71184 4.07655C6.07626 4.01092 6.45404 4.04436 6.79739 4.17265C7.14075 4.30094 7.43424 4.51831 7.64074 4.79725C7.84724 5.07619 7.95746 5.40417 7.95746 5.73968C7.9578 5.96228 7.90954 6.18276 7.81544 6.3885C7.72134 6.59424 7.58323 6.78121 7.40903 6.93872C7.23483 7.09623 7.02795 7.22119 6.80022 7.30645C6.57249 7.3917 6.32838 7.43558 6.08185 7.43558Z" stroke="white" stroke-width="0.5" stroke-linecap="round" stroke-linejoin="round"/>
</svg>
