<svg width="601" height="489" viewBox="0 0 601 489" fill="none" xmlns="http://www.w3.org/2000/svg">
<rect x="234.25" y="0.25" width="366.5" height="487.791" fill="#141720" stroke="white" stroke-width="0.5"/>
<rect x="234.25" y="0.25" width="366.5" height="487.791" fill="#141720" stroke="white" stroke-width="0.5"/>
<rect x="234.25" y="0.25" width="366.5" height="42.4696" fill="#2300F7" stroke="white" stroke-width="0.5"/>
<path d="M253.493 8.33838C255.271 8.33838 256.837 8.75423 258.193 9.58594C259.56 10.4062 260.614 11.5798 261.354 13.1064C262.106 14.6331 262.482 16.4105 262.482 18.4385C262.482 20.4665 262.106 22.2438 261.354 23.7705C260.614 25.2858 259.56 26.4593 258.193 27.291C256.837 28.1113 255.271 28.5215 253.493 28.5215C253.174 28.5215 252.878 28.5101 252.604 28.4873L250.4 30.7944C251.323 30.4299 252.234 30.2476 253.134 30.2476C253.499 30.2476 253.841 30.2703 254.16 30.3159C254.49 30.3615 254.9 30.4355 255.39 30.5381C256.176 30.709 256.792 30.7944 257.236 30.7944C257.692 30.7944 258.136 30.7204 258.569 30.5723C259.013 30.4242 259.48 30.1735 259.97 29.8203C260.073 29.752 260.181 29.7178 260.295 29.7178C260.466 29.7178 260.637 29.7861 260.808 29.9229C260.99 30.0596 261.149 30.2419 261.286 30.4697C261.48 30.8001 261.577 31.0907 261.577 31.3413C261.577 31.6375 261.451 31.8768 261.201 32.0591C260.54 32.549 259.913 32.8965 259.321 33.1016C258.74 33.3066 258.159 33.4092 257.578 33.4092C257.281 33.4092 256.962 33.3864 256.621 33.3408C256.29 33.2952 256.017 33.2497 255.8 33.2041C255.595 33.1699 255.447 33.1414 255.356 33.1187C254.764 32.9933 254.268 32.9022 253.869 32.8452C253.482 32.7882 253.06 32.7598 252.604 32.7598C251.374 32.7598 250.092 33.0389 248.759 33.5972C248.68 33.6313 248.594 33.6484 248.503 33.6484C248.127 33.6484 247.74 33.3864 247.341 32.8623C247.045 32.4749 246.896 32.1388 246.896 31.854C246.896 31.6945 246.948 31.5521 247.05 31.4268L250.126 27.9404C248.372 27.2796 246.993 26.1232 245.991 24.4712C245 22.8078 244.504 20.7969 244.504 18.4385C244.504 16.4105 244.874 14.6331 245.615 13.1064C246.367 11.5798 247.421 10.4062 248.776 9.58594C250.144 8.75423 251.716 8.33838 253.493 8.33838ZM253.493 10.8677C252.229 10.8677 251.123 11.1696 250.178 11.7734C249.232 12.3773 248.497 13.2489 247.973 14.3882C247.46 15.5275 247.204 16.8776 247.204 18.4385C247.204 19.9993 247.46 21.3494 247.973 22.4888C248.497 23.6281 249.232 24.4997 250.178 25.1035C251.123 25.696 252.229 25.9922 253.493 25.9922C254.758 25.9922 255.863 25.696 256.809 25.1035C257.754 24.4997 258.483 23.6281 258.996 22.4888C259.52 21.3494 259.782 19.9993 259.782 18.4385C259.782 16.8776 259.52 15.5275 258.996 14.3882C258.483 13.2489 257.754 12.3773 256.809 11.7734C255.863 11.1696 254.758 10.8677 253.493 10.8677ZM279.982 13.209C280.37 13.209 280.643 13.3001 280.803 13.4824C280.974 13.6533 281.059 13.9495 281.059 14.3711V26.6758H282.46C282.848 26.6758 283.121 26.7669 283.281 26.9492C283.452 27.1201 283.537 27.4163 283.537 27.8379C283.537 28.2594 283.452 28.5614 283.281 28.7437C283.121 28.9146 282.848 29 282.46 29H279.743C279.356 29 279.077 28.9146 278.906 28.7437C278.746 28.5728 278.667 28.2765 278.667 27.855V25.7871C277.915 26.9492 277.032 27.8379 276.018 28.4531C275.015 29.0684 273.933 29.376 272.771 29.376C271.734 29.376 270.834 29.1538 270.07 28.7095C269.307 28.2537 268.72 27.6043 268.31 26.7612C267.9 25.9181 267.695 24.9326 267.695 23.8047V15.5332H266.293C265.906 15.5332 265.627 15.4478 265.456 15.2769C265.297 15.0946 265.217 14.7926 265.217 14.3711C265.217 13.9495 265.297 13.6533 265.456 13.4824C265.627 13.3001 265.906 13.209 266.293 13.209H269.182C269.569 13.209 269.842 13.3001 270.002 13.4824C270.173 13.6533 270.258 13.9495 270.258 14.3711V23.5483C270.258 24.5623 270.492 25.3656 270.959 25.958C271.426 26.5505 272.115 26.8467 273.027 26.8467C273.995 26.8467 274.895 26.5675 275.727 26.0093C276.57 25.451 277.242 24.682 277.744 23.7021C278.245 22.7223 278.496 21.6286 278.496 20.4209V15.5332H276.069C275.681 15.5332 275.402 15.4478 275.231 15.2769C275.072 15.0946 274.992 14.7926 274.992 14.3711C274.992 13.9495 275.072 13.6533 275.231 13.4824C275.402 13.3001 275.681 13.209 276.069 13.209H279.982ZM296.081 13.209C296.468 13.209 296.742 13.3001 296.901 13.4824C297.072 13.6533 297.158 13.9495 297.158 14.3711V26.6758H302.644C303.031 26.6758 303.304 26.7669 303.464 26.9492C303.635 27.1201 303.72 27.4163 303.72 27.8379C303.72 28.2594 303.635 28.5614 303.464 28.7437C303.304 28.9146 303.031 29 302.644 29H289.245C288.858 29 288.579 28.9146 288.408 28.7437C288.248 28.5614 288.168 28.2594 288.168 27.8379C288.168 27.4163 288.248 27.1201 288.408 26.9492C288.579 26.7669 288.858 26.6758 289.245 26.6758H294.594V15.5332H290.271C289.883 15.5332 289.604 15.4478 289.433 15.2769C289.274 15.0946 289.194 14.7926 289.194 14.3711C289.194 13.9495 289.274 13.6533 289.433 13.4824C289.604 13.3001 289.883 13.209 290.271 13.209H296.081ZM295.534 5.70654C296.161 5.70654 296.588 5.79199 296.816 5.96289C297.044 6.1224 297.158 6.40723 297.158 6.81738V9.03906C297.158 9.44922 297.044 9.73975 296.816 9.91064C296.588 10.0701 296.161 10.1499 295.534 10.1499C294.908 10.1499 294.48 10.0701 294.252 9.91064C294.025 9.73975 293.911 9.44922 293.911 9.03906V6.81738C293.911 6.40723 294.025 6.1224 294.252 5.96289C294.48 5.79199 294.908 5.70654 295.534 5.70654ZM322.656 13.209C323.043 13.209 323.317 13.3001 323.476 13.4824C323.647 13.6533 323.732 13.9495 323.732 14.3711C323.732 14.7015 323.647 14.9635 323.476 15.1572L313.051 26.6758H321.34V23.7363C321.34 23.3376 321.437 23.0527 321.63 22.8818C321.824 22.7109 322.154 22.6255 322.622 22.6255C323.089 22.6255 323.419 22.7109 323.613 22.8818C323.806 23.0527 323.903 23.3376 323.903 23.7363V27.8379C323.903 28.2594 323.818 28.5614 323.647 28.7437C323.487 28.9146 323.214 29 322.827 29H310.078C309.69 29 309.411 28.9146 309.24 28.7437C309.081 28.5614 309.001 28.2594 309.001 27.8379C309.001 27.4961 309.081 27.2397 309.24 27.0688L319.682 15.5332H311.906V18.0796C311.906 18.4784 311.809 18.7632 311.616 18.9341C311.422 19.105 311.092 19.1904 310.625 19.1904C310.157 19.1904 309.827 19.105 309.633 18.9341C309.44 18.7632 309.343 18.4784 309.343 18.0796V14.3711C309.343 13.9495 309.423 13.6533 309.582 13.4824C309.753 13.3001 310.032 13.209 310.419 13.209H322.656Z" fill="white"/>
<path d="M449.52 138.595H430.8C428.378 138.595 426.413 139.362 426.413 140.309C426.413 141.256 428.377 142.023 430.8 142.023H449.52C451.943 142.023 453.908 141.256 453.908 140.309C453.908 139.362 451.943 138.595 449.52 138.595Z" fill="white"/>
<path d="M415.718 138.595H345.519C343.096 138.595 341.132 139.362 341.132 140.309C341.132 141.256 343.096 142.023 345.519 142.023H415.717C418.14 142.023 420.105 141.256 420.105 140.309C420.105 139.362 418.141 138.595 415.718 138.595Z" fill="white"/>
<path d="M322.043 138.595H284.604C282.181 138.595 280.217 139.362 280.217 140.309C280.217 141.256 282.181 142.023 284.604 142.023H322.043C324.466 142.023 326.431 141.256 326.431 140.309C326.431 139.362 324.466 138.595 322.043 138.595Z" fill="white"/>
<path d="M451.822 119.34H400.343C397.92 119.34 395.955 120.108 395.955 121.055C395.955 122.002 397.92 122.769 400.343 122.769H451.822C454.245 122.769 456.209 122.002 456.209 121.055C456.209 120.108 454.245 119.34 451.822 119.34Z" fill="white"/>
<path d="M378.202 119.34H284.604C282.181 119.34 280.217 120.108 280.217 121.055C280.217 122.001 282.181 122.769 284.604 122.769H378.202C380.625 122.769 382.59 122.002 382.59 121.055C382.59 120.108 380.625 119.34 378.202 119.34Z" fill="white"/>
<path d="M449.52 254.121H430.8C428.378 254.121 426.413 254.889 426.413 255.836C426.413 256.782 428.377 257.55 430.8 257.55H449.52C451.943 257.55 453.908 256.782 453.908 255.836C453.908 254.889 451.943 254.121 449.52 254.121Z" fill="white"/>
<path d="M415.718 254.121H345.519C343.096 254.121 341.132 254.889 341.132 255.836C341.132 256.782 343.096 257.55 345.519 257.55H415.717C418.14 257.55 420.105 256.782 420.105 255.836C420.105 254.889 418.141 254.121 415.718 254.121Z" fill="white"/>
<path d="M322.043 254.121H284.604C282.181 254.121 280.217 254.889 280.217 255.835C280.217 256.782 282.181 257.55 284.604 257.55H322.043C324.466 257.55 326.431 256.782 326.431 255.835C326.431 254.888 324.466 254.121 322.043 254.121Z" fill="white"/>
<path d="M451.822 234.867H400.343C397.92 234.867 395.955 235.634 395.955 236.581C395.955 237.528 397.92 238.296 400.343 238.296H451.822C454.245 238.296 456.209 237.528 456.209 236.581C456.209 235.634 454.245 234.867 451.822 234.867Z" fill="white"/>
<path d="M378.202 234.867H284.604C282.181 234.867 280.217 235.634 280.217 236.581C280.217 237.528 282.181 238.296 284.604 238.296H378.202C380.625 238.296 382.59 237.528 382.59 236.581C382.59 235.634 380.625 234.867 378.202 234.867Z" fill="white"/>
<path d="M449.52 369.648H430.8C428.378 369.648 426.413 370.415 426.413 371.362C426.413 372.309 428.377 373.076 430.8 373.076H449.52C451.943 373.076 453.908 372.309 453.908 371.362C453.908 370.415 451.943 369.648 449.52 369.648Z" fill="white"/>
<path d="M415.718 369.648H345.519C343.096 369.648 341.132 370.415 341.132 371.362C341.132 372.309 343.096 373.076 345.519 373.076H415.717C418.14 373.076 420.105 372.309 420.105 371.362C420.105 370.415 418.141 369.648 415.718 369.648Z" fill="white"/>
<path d="M322.043 369.648H284.604C282.181 369.648 280.217 370.415 280.217 371.362C280.217 372.309 282.181 373.076 284.604 373.076H322.043C324.466 373.076 326.431 372.309 326.431 371.362C326.431 370.415 324.466 369.648 322.043 369.648Z" fill="white"/>
<path d="M451.822 350.393H400.343C397.92 350.393 395.955 351.161 395.955 352.108C395.955 353.055 397.92 353.822 400.343 353.822H451.822C454.245 353.822 456.209 353.055 456.209 352.108C456.209 351.161 454.245 350.393 451.822 350.393Z" fill="white"/>
<path d="M378.202 350.393H284.604C282.181 350.393 280.217 351.161 280.217 352.108C280.217 353.054 282.181 353.822 284.604 353.822H378.202C380.625 353.822 382.59 353.055 382.59 352.108C382.59 351.161 380.625 350.393 378.202 350.393Z" fill="white"/>
<rect x="516.555" y="109.963" width="42.4249" height="47.6361" fill="#2300F7" stroke="white" stroke-width="0.5"/>
<path d="M549.995 120.347C549.128 119.004 547.722 119.004 546.855 120.347L534.215 139.922L528.68 131.35C527.813 130.007 526.407 130.007 525.54 131.35C524.673 132.693 524.673 134.87 525.54 136.212L532.645 147.215C533.079 147.886 533.647 148.222 534.215 148.222C534.783 148.222 535.351 147.886 535.785 147.215L549.994 125.21C550.862 123.867 550.862 121.69 549.995 120.347Z" fill="white"/>
<rect x="516.555" y="331.389" width="42.4249" height="47.6361" fill="#2300F7" stroke="white" stroke-width="0.5"/>
<path d="M549.995 341.774C549.128 340.431 547.722 340.431 546.855 341.774L534.215 361.348L528.68 352.776C527.813 351.433 526.407 351.433 525.54 352.776C524.673 354.119 524.673 356.296 525.54 357.639L532.645 368.641C533.079 369.312 533.647 369.648 534.215 369.648C534.783 369.648 535.351 369.313 535.785 368.641L549.994 346.636C550.862 345.293 550.862 343.116 549.995 341.774Z" fill="white"/>
<rect x="516.555" y="220.676" width="42.4249" height="47.6361" fill="#2300F7" stroke="white" stroke-width="0.5"/>
<path d="M549.747 253.065L542.104 244.494L549.747 235.922C550.944 234.58 550.944 232.403 549.747 231.06C548.55 229.717 546.608 229.717 545.411 231.06L537.768 239.632L530.124 231.06C528.927 229.717 526.985 229.717 525.788 231.06C524.591 232.403 524.591 234.58 525.788 235.922L533.432 244.494L525.788 253.065C524.591 254.408 524.591 256.585 525.788 257.928C526.387 258.599 527.172 258.935 527.956 258.935C528.74 258.935 529.525 258.599 530.124 257.928L537.767 249.356L545.411 257.928C546.009 258.599 546.794 258.935 547.578 258.935C548.363 258.935 549.148 258.599 549.746 257.928C550.944 256.585 550.944 254.408 549.747 253.065Z" fill="white"/>
<path d="M42.1973 73L41.7398 72.9436L41.6759 73.461H42.1973V73ZM43.0103 66.4082V65.9472H42.6026L42.5527 66.3518L43.0103 66.4082ZM69.3774 66.4082V66.8692H69.7851L69.835 66.4646L69.3774 66.4082ZM70.1904 59.8164L70.6479 59.8728L70.7118 59.3554H70.1904V59.8164ZM43.8232 59.8164L43.3657 59.7605L43.3025 60.2774H43.8232V59.8164ZM46.2402 40.041V39.58H45.8322L45.7827 39.9851L46.2402 40.041ZM79.1992 40.041L79.6567 40.0974L79.7205 39.58H79.1992V40.041ZM78.3862 46.6328V47.0938H78.7938L78.8437 46.6892L78.3862 46.6328ZM52.019 46.6328V46.1718H51.6101L51.5613 46.5779L52.019 46.6328ZM51.228 53.2246L50.7703 53.1697L50.7084 53.6856H51.228V53.2246ZM77.5952 53.2246L78.0527 53.281L78.1165 52.7636H77.5952V53.2246ZM75.1562 73V73.461H75.5639L75.6138 73.0564L75.1562 73ZM42.6548 73.0564L43.4678 66.4646L42.5527 66.3518L41.7398 72.9436L42.6548 73.0564ZM43.0103 66.8692H69.3774V65.9472H43.0103V66.8692ZM69.835 66.4646L70.6479 59.8728L69.7329 59.76L68.9199 66.3518L69.835 66.4646ZM70.1904 59.3554H43.8232V60.2774H70.1904V59.3554ZM44.2808 59.8723L46.6978 40.0969L45.7827 39.9851L43.3657 59.7605L44.2808 59.8723ZM46.2402 40.502H79.1992V39.58H46.2402V40.502ZM78.7417 39.9846L77.9287 46.5764L78.8437 46.6892L79.6567 40.0974L78.7417 39.9846ZM78.3862 46.1718H52.019V47.0938H78.3862V46.1718ZM51.5613 46.5779L50.7703 53.1697L51.6857 53.2795L52.4767 46.6877L51.5613 46.5779ZM51.228 53.6856H77.5952V52.7636H51.228V53.6856ZM77.1377 53.1682L74.6987 72.9436L75.6138 73.0564L78.0527 53.281L77.1377 53.1682ZM75.1562 72.539H42.1973V73.461H75.1562V72.539ZM116.553 40.041L117.01 40.0974L117.074 39.58H116.553V40.041ZM115.74 46.6328V47.0938H116.147L116.197 46.6892L115.74 46.6328ZM89.3726 46.6328V46.1718H88.9645L88.915 46.5769L89.3726 46.6328ZM86.9556 66.4082L86.498 66.3523L86.4348 66.8692H86.9556V66.4082ZM113.323 66.4082L113.78 66.4646L113.844 65.9472H113.323V66.4082ZM112.51 73V73.461H112.917L112.967 73.0564L112.51 73ZM79.5508 73L79.0932 72.9439L79.0298 73.461H79.5508V73ZM83.5938 40.041V39.58H83.1859L83.1362 39.9849L83.5938 40.041ZM116.095 39.9846L115.282 46.5764L116.197 46.6892L117.01 40.0974L116.095 39.9846ZM115.74 46.1718H89.3726V47.0938H115.74V46.1718ZM88.915 46.5769L86.498 66.3523L87.4131 66.4641L89.8301 46.6887L88.915 46.5769ZM86.9556 66.8692H113.323V65.9472H86.9556V66.8692ZM112.865 66.3518L112.052 72.9436L112.967 73.0564L113.78 66.4646L112.865 66.3518ZM112.51 72.539H79.5508V73.461H112.51V72.539ZM80.0083 73.0561L84.0513 40.0971L83.1362 39.9849L79.0932 72.9439L80.0083 73.0561ZM83.5938 40.502H116.553V39.58H83.5938V40.502ZM120.947 40.041V39.58H120.539L120.49 39.9849L120.947 40.041ZM153.906 40.041L154.364 40.0971L154.427 39.58H153.906V40.041ZM149.863 73V73.461H150.271L150.321 73.0561L149.863 73ZM116.904 73L116.447 72.9439L116.383 73.461H116.904V73ZM126.726 46.6328V46.1718H126.318L126.269 46.5769L126.726 46.6328ZM124.309 66.4082L123.852 66.3523L123.788 66.8692H124.309V66.4082ZM144.084 66.4082V66.8692H144.493L144.542 66.4641L144.084 66.4082ZM146.501 46.6328L146.959 46.6887L147.022 46.1718H146.501V46.6328ZM120.947 40.502H153.906V39.58H120.947V40.502ZM153.449 39.9849L149.406 72.9439L150.321 73.0561L154.364 40.0971L153.449 39.9849ZM149.863 72.539H116.904V73.461H149.863V72.539ZM117.362 73.0561L121.405 40.0971L120.49 39.9849L116.447 72.9439L117.362 73.0561ZM126.269 46.5769L123.852 66.3523L124.767 66.4641L127.184 46.6887L126.269 46.5769ZM124.309 66.8692H144.084V65.9472H124.309V66.8692ZM144.542 66.4641L146.959 46.6887L146.044 46.5769L143.627 66.3523L144.542 66.4641ZM146.501 46.1718H126.726V47.0938H146.501V46.1718ZM164.08 46.6328V46.1718H163.671L163.622 46.5779L164.08 46.6328ZM163.289 53.2246L162.831 53.1697L162.769 53.6856H163.289V53.2246ZM183.064 53.2246V53.6856H183.473L183.522 53.2795L183.064 53.2246ZM183.855 46.6328L184.313 46.6877L184.375 46.1718H183.855V46.6328ZM163.223 53.752L163.569 53.4481L162.891 52.6744L162.765 53.6955L163.223 53.752ZM160.85 73V73.461H161.257L161.307 73.0564L160.85 73ZM154.258 73L153.8 72.9439L153.737 73.461H154.258V73ZM158.301 40.041V39.58H157.893L157.843 39.9849L158.301 40.041ZM191.26 40.041L191.717 40.0969L191.781 39.58H191.26V40.041ZM188.843 59.8164V60.2774H189.251L189.3 59.8723L188.843 59.8164ZM177.856 59.8164V59.3554H176.839L177.51 60.1203L177.856 59.8164ZM189.414 73V73.461H190.431L189.761 72.6961L189.414 73ZM180.098 73L179.751 73.3039L179.889 73.461H180.098V73ZM163.622 46.5779L162.831 53.1697L163.746 53.2795L164.537 46.6877L163.622 46.5779ZM163.289 53.6856H183.064V52.7636H163.289V53.6856ZM183.522 53.2795L184.313 46.6877L183.397 46.5779L182.606 53.1697L183.522 53.2795ZM183.855 46.1718H164.08V47.0938H183.855V46.1718ZM162.765 53.6955L160.392 72.9436L161.307 73.0564L163.68 53.8084L162.765 53.6955ZM160.85 72.539H154.258V73.461H160.85V72.539ZM154.715 73.0561L158.758 40.0971L157.843 39.9849L153.8 72.9439L154.715 73.0561ZM158.301 40.502H191.26V39.58H158.301V40.502ZM190.802 39.9851L188.385 59.7605L189.3 59.8723L191.717 40.0969L190.802 39.9851ZM188.843 59.3554H177.856V60.2774H188.843V59.3554ZM177.51 60.1203L189.067 73.3039L189.761 72.6961L178.203 59.5125L177.51 60.1203ZM189.414 72.539H180.098V73.461H189.414V72.539ZM180.444 72.6961L163.569 53.4481L162.876 54.0558L179.751 73.3039L180.444 72.6961ZM199.016 66.4082L198.559 66.3518L198.495 66.8692H199.016V66.4082ZM225.383 66.4082L225.841 66.4646L225.905 65.9472H225.383V66.4082ZM224.57 73V73.461H224.978L225.028 73.0564L224.57 73ZM191.611 73L191.154 72.9439L191.09 73.461H191.611V73ZM195.654 40.041V39.58H195.246L195.197 39.9849L195.654 40.041ZM228.613 40.041L229.071 40.0974L229.135 39.58H228.613V40.041ZM227.8 46.6328V47.0938H228.208L228.258 46.6892L227.8 46.6328ZM201.433 46.6328V46.1718H201.024L200.975 46.5779L201.433 46.6328ZM200.642 53.2246L200.184 53.1697L200.122 53.6856H200.642V53.2246ZM227.009 53.2246L227.467 53.281L227.531 52.7636H227.009V53.2246ZM226.196 59.8164V60.2774H226.604L226.654 59.8728L226.196 59.8164ZM199.829 59.8164V59.3554H199.421L199.372 59.76L199.829 59.8164ZM199.016 66.8692H225.383V65.9472H199.016V66.8692ZM224.926 66.3518L224.113 72.9436L225.028 73.0564L225.841 66.4646L224.926 66.3518ZM224.57 72.539H191.611V73.461H224.57V72.539ZM192.069 73.0561L196.112 40.0971L195.197 39.9849L191.154 72.9439L192.069 73.0561ZM195.654 40.502H228.613V39.58H195.654V40.502ZM228.156 39.9846L227.343 46.5764L228.258 46.6892L229.071 40.0974L228.156 39.9846ZM227.8 46.1718H201.433V47.0938H227.8V46.1718ZM200.975 46.5779L200.184 53.1697L201.1 53.2795L201.891 46.6877L200.975 46.5779ZM200.642 53.6856H227.009V52.7636H200.642V53.6856ZM226.552 53.1682L225.739 59.76L226.654 59.8728L227.467 53.281L226.552 53.1682ZM226.196 59.3554H199.829V60.2774H226.196V59.3554ZM199.372 59.76L198.559 66.3518L199.474 66.4646L200.287 59.8728L199.372 59.76ZM255.574 53.2246L255.116 53.1686L255.053 53.6856H255.574V53.2246ZM264.363 53.2246L264.82 53.281L264.884 52.7636H264.363V53.2246ZM263.55 59.8164V60.2774H263.957L264.007 59.8728L263.55 59.8164ZM254.761 59.8164V59.3554H254.353L254.303 59.7604L254.761 59.8164ZM253.684 68.6055V69.0664H254.092L254.142 68.6615L253.684 68.6055ZM247.092 68.6055L246.635 68.5494L246.571 69.0664H247.092V68.6055ZM248.169 59.8164L248.626 59.8725L248.69 59.3554H248.169V59.8164ZM239.38 59.8164L238.922 59.76L238.859 60.2774H239.38V59.8164ZM240.193 53.2246V52.7636H239.785L239.735 53.1682L240.193 53.2246ZM248.982 53.2246V53.6856H249.39L249.439 53.2807L248.982 53.2246ZM250.059 44.4355V43.9746H249.651L249.601 44.3795L250.059 44.4355ZM256.65 44.4355L257.108 44.4916L257.171 43.9746H256.65V44.4355ZM255.574 53.6856H264.363V52.7636H255.574V53.6856ZM263.905 53.1682L263.092 59.76L264.007 59.8728L264.82 53.281L263.905 53.1682ZM263.55 59.3554H254.761V60.2774H263.55V59.3554ZM254.303 59.7604L253.227 68.5494L254.142 68.6615L255.218 59.8725L254.303 59.7604ZM253.684 68.1445H247.092V69.0664H253.684V68.1445ZM247.55 68.6615L248.626 59.8725L247.711 59.7604L246.635 68.5494L247.55 68.6615ZM248.169 59.3554H239.38V60.2774H248.169V59.3554ZM239.837 59.8728L240.65 53.281L239.735 53.1682L238.922 59.76L239.837 59.8728ZM240.193 53.6856H248.982V52.7636H240.193V53.6856ZM249.439 53.2807L250.516 44.4916L249.601 44.3795L248.524 53.1686L249.439 53.2807ZM250.059 44.8965H256.65V43.9746H250.059V44.8965ZM256.193 44.3795L255.116 53.1686L256.031 53.2807L257.108 44.4916L256.193 44.3795ZM295.916 46.6328L296.373 46.6877L296.435 46.1718H295.916V46.6328ZM269.548 46.6328L269.091 46.5764L269.027 47.0938H269.548V46.6328ZM270.361 40.041V39.58H269.954L269.904 39.9846L270.361 40.041ZM303.32 40.041L303.778 40.0969L303.841 39.58H303.32V40.041ZM300.903 59.8164V60.2774H301.311L301.361 59.8723L300.903 59.8164ZM274.536 59.8164V59.3554H274.129L274.079 59.76L274.536 59.8164ZM273.723 66.4082L273.266 66.3518L273.202 66.8692H273.723V66.4082ZM300.09 66.4082L300.548 66.4646L300.612 65.9472H300.09V66.4082ZM299.277 73V73.461H299.685L299.735 73.0564L299.277 73ZM266.318 73L265.861 72.9436L265.797 73.461H266.318V73ZM268.757 53.2246V52.7636H268.35L268.3 53.1682L268.757 53.2246ZM295.125 53.2246V53.6856H295.533L295.582 53.2795L295.125 53.2246ZM295.916 46.1718H269.548V47.0938H295.916V46.1718ZM270.006 46.6892L270.819 40.0974L269.904 39.9846L269.091 46.5764L270.006 46.6892ZM270.361 40.502H303.32V39.58H270.361V40.502ZM302.863 39.9851L300.446 59.7605L301.361 59.8723L303.778 40.0969L302.863 39.9851ZM300.903 59.3554H274.536V60.2774H300.903V59.3554ZM274.079 59.76L273.266 66.3518L274.181 66.4646L274.994 59.8728L274.079 59.76ZM273.723 66.8692H300.09V65.9472H273.723V66.8692ZM299.633 66.3518L298.82 72.9436L299.735 73.0564L300.548 66.4646L299.633 66.3518ZM299.277 72.539H266.318V73.461H299.277V72.539ZM266.776 73.0564L269.215 53.281L268.3 53.1682L265.861 72.9436L266.776 73.0564ZM268.757 53.6856H295.125V52.7636H268.757V53.6856ZM295.582 53.2795L296.373 46.6877L295.458 46.5779L294.667 53.1697L295.582 53.2795ZM307.715 40.041V39.58H307.307L307.257 39.9849L307.715 40.041ZM340.674 40.041L341.131 40.0971L341.195 39.58H340.674V40.041ZM336.631 73V73.461H337.039L337.088 73.0561L336.631 73ZM303.672 73L303.214 72.9439L303.151 73.461H303.672V73ZM313.494 46.6328V46.1718H313.086L313.036 46.5769L313.494 46.6328ZM311.077 66.4082L310.619 66.3523L310.556 66.8692H311.077V66.4082ZM330.852 66.4082V66.8692H331.26L331.31 66.4641L330.852 66.4082ZM333.269 46.6328L333.727 46.6887L333.79 46.1718H333.269V46.6328ZM307.715 40.502H340.674V39.58H307.715V40.502ZM340.216 39.9849L336.173 72.9439L337.088 73.0561L341.131 40.0971L340.216 39.9849ZM336.631 72.539H303.672V73.461H336.631V72.539ZM304.129 73.0561L308.172 40.0971L307.257 39.9849L303.214 72.9439L304.129 73.0561ZM313.036 46.5769L310.619 66.3523L311.534 66.4641L313.951 46.6887L313.036 46.5769ZM311.077 66.8692H330.852V65.9472H311.077V66.8692ZM331.31 66.4641L333.727 46.6887L332.811 46.5769L330.394 66.3523L331.31 66.4641ZM333.269 46.1718H313.494V47.0938H333.269V46.1718ZM345.068 40.041V39.58H344.66L344.611 39.9849L345.068 40.041ZM378.027 40.041L378.485 40.0971L378.548 39.58H378.027V40.041ZM373.984 73V73.461H374.392L374.442 73.0561L373.984 73ZM341.025 73L340.568 72.9439L340.504 73.461H341.025V73ZM350.847 46.6328V46.1718H350.439L350.39 46.5769L350.847 46.6328ZM348.43 66.4082L347.973 66.3523L347.909 66.8692H348.43V66.4082ZM368.206 66.4082V66.8692H368.614L368.663 66.4641L368.206 66.4082ZM370.623 46.6328L371.08 46.6887L371.143 46.1718H370.623V46.6328ZM345.068 40.502H378.027V39.58H345.068V40.502ZM377.57 39.9849L373.527 72.9439L374.442 73.0561L378.485 40.0971L377.57 39.9849ZM373.984 72.539H341.025V73.461H373.984V72.539ZM341.483 73.0561L345.526 40.0971L344.611 39.9849L340.568 72.9439L341.483 73.0561ZM350.39 46.5769L347.973 66.3523L348.888 66.4641L351.305 46.6887L350.39 46.5769ZM348.43 66.8692H368.206V65.9472H348.43V66.8692ZM368.663 66.4641L371.08 46.6887L370.165 46.5769L367.748 66.3523L368.663 66.4641ZM370.623 46.1718H350.847V47.0938H370.623V46.1718Z" fill="#141720"/>
<path d="M22.1973 93.8572L21.7398 93.8008L21.6759 94.3182H22.1973V93.8572ZM23.0103 87.2654V86.8044H22.6026L22.5527 87.209L23.0103 87.2654ZM49.3774 87.2654V87.7264H49.7851L49.835 87.3218L49.3774 87.2654ZM50.1904 80.6736L50.6479 80.73L50.7118 80.2126H50.1904V80.6736ZM23.8232 80.6736L23.3657 80.6177L23.3025 81.1346H23.8232V80.6736ZM26.2402 60.8982V60.4372H25.8322L25.7827 60.8423L26.2402 60.8982ZM59.1992 60.8982L59.6567 60.9546L59.7205 60.4372H59.1992V60.8982ZM58.3862 67.49V67.951H58.7938L58.8437 67.5464L58.3862 67.49ZM32.019 67.49V67.029H31.6101L31.5613 67.4351L32.019 67.49ZM31.228 74.0818L30.7703 74.0269L30.7084 74.5428H31.228V74.0818ZM57.5952 74.0818L58.0527 74.1382L58.1165 73.6208H57.5952V74.0818ZM55.1562 93.8572V94.3182H55.5639L55.6138 93.9136L55.1562 93.8572ZM22.6548 93.9136L23.4678 87.3218L22.5527 87.209L21.7398 93.8008L22.6548 93.9136ZM23.0103 87.7264H49.3774V86.8044H23.0103V87.7264ZM49.835 87.3218L50.6479 80.73L49.7329 80.6172L48.9199 87.209L49.835 87.3218ZM50.1904 80.2126H23.8232V81.1346H50.1904V80.2126ZM24.2808 80.7295L26.6978 60.9541L25.7827 60.8423L23.3657 80.6177L24.2808 80.7295ZM26.2402 61.3592H59.1992V60.4372H26.2402V61.3592ZM58.7417 60.8418L57.9287 67.4336L58.8437 67.5464L59.6567 60.9546L58.7417 60.8418ZM58.3862 67.029H32.019V67.951H58.3862V67.029ZM31.5613 67.4351L30.7703 74.0269L31.6857 74.1367L32.4767 67.5449L31.5613 67.4351ZM31.228 74.5428H57.5952V73.6208H31.228V74.5428ZM57.1377 74.0254L54.6987 93.8008L55.6138 93.9136L58.0527 74.1382L57.1377 74.0254ZM55.1562 93.3962H22.1973V94.3182H55.1562V93.3962ZM96.5527 60.8982L97.0102 60.9546L97.0741 60.4372H96.5527V60.8982ZM95.7397 67.49V67.951H96.1474L96.1973 67.5464L95.7397 67.49ZM69.3726 67.49V67.029H68.9645L68.915 67.4341L69.3726 67.49ZM66.9556 87.2654L66.498 87.2095L66.4348 87.7264H66.9556V87.2654ZM93.3228 87.2654L93.7803 87.3218L93.8441 86.8044H93.3228V87.2654ZM92.5098 93.8572V94.3182H92.9174L92.9673 93.9136L92.5098 93.8572ZM59.5508 93.8572L59.0932 93.8011L59.0298 94.3182H59.5508V93.8572ZM63.5938 60.8982V60.4372H63.1859L63.1362 60.8421L63.5938 60.8982ZM96.0952 60.8418L95.2822 67.4336L96.1973 67.5464L97.0102 60.9546L96.0952 60.8418ZM95.7397 67.029H69.3726V67.951H95.7397V67.029ZM68.915 67.4341L66.498 87.2095L67.4131 87.3213L69.8301 67.5459L68.915 67.4341ZM66.9556 87.7264H93.3228V86.8044H66.9556V87.7264ZM92.8652 87.209L92.0523 93.8008L92.9673 93.9136L93.7803 87.3218L92.8652 87.209ZM92.5098 93.3962H59.5508V94.3182H92.5098V93.3962ZM60.0083 93.9133L64.0513 60.9543L63.1362 60.8421L59.0932 93.8011L60.0083 93.9133ZM63.5938 61.3592H96.5527V60.4372H63.5938V61.3592ZM100.947 60.8982V60.4372H100.539L100.49 60.8421L100.947 60.8982ZM133.906 60.8982L134.364 60.9543L134.427 60.4372H133.906V60.8982ZM129.863 93.8572V94.3182H130.271L130.321 93.9133L129.863 93.8572ZM96.9043 93.8572L96.4467 93.8011L96.3833 94.3182H96.9043V93.8572ZM106.726 67.49V67.029H106.318L106.269 67.4341L106.726 67.49ZM104.309 87.2654L103.852 87.2095L103.788 87.7264H104.309V87.2654ZM124.084 87.2654V87.7264H124.493L124.542 87.3213L124.084 87.2654ZM126.501 67.49L126.959 67.5459L127.022 67.029H126.501V67.49ZM100.947 61.3592H133.906V60.4372H100.947V61.3592ZM133.449 60.8421L129.406 93.8011L130.321 93.9133L134.364 60.9543L133.449 60.8421ZM129.863 93.3962H96.9043V94.3182H129.863V93.3962ZM97.3618 93.9133L101.405 60.9543L100.49 60.8421L96.4467 93.8011L97.3618 93.9133ZM106.269 67.4341L103.852 87.2095L104.767 87.3213L107.184 67.5459L106.269 67.4341ZM104.309 87.7264H124.084V86.8044H104.309V87.7264ZM124.542 87.3213L126.959 67.5459L126.044 67.4341L123.627 87.2095L124.542 87.3213ZM126.501 67.029H106.726V67.951H126.501V67.029ZM144.08 67.49V67.029H143.671L143.622 67.4351L144.08 67.49ZM143.289 74.0818L142.831 74.0269L142.769 74.5428H143.289V74.0818ZM163.064 74.0818V74.5428H163.473L163.522 74.1367L163.064 74.0818ZM163.855 67.49L164.313 67.5449L164.375 67.029H163.855V67.49ZM143.223 74.6091L143.569 74.3052L142.891 73.5316L142.765 74.5527L143.223 74.6091ZM140.85 93.8572V94.3182H141.257L141.307 93.9136L140.85 93.8572ZM134.258 93.8572L133.8 93.8011L133.737 94.3182H134.258V93.8572ZM138.301 60.8982V60.4372H137.893L137.843 60.8421L138.301 60.8982ZM171.26 60.8982L171.717 60.9541L171.781 60.4372H171.26V60.8982ZM168.843 80.6736V81.1346H169.251L169.3 80.7295L168.843 80.6736ZM157.856 80.6736V80.2126H156.839L157.51 80.9775L157.856 80.6736ZM169.414 93.8572V94.3182H170.431L169.761 93.5533L169.414 93.8572ZM160.098 93.8572L159.751 94.1611L159.889 94.3182H160.098V93.8572ZM143.622 67.4351L142.831 74.0269L143.746 74.1367L144.537 67.5449L143.622 67.4351ZM143.289 74.5428H163.064V73.6208H143.289V74.5428ZM163.522 74.1367L164.313 67.5449L163.397 67.4351L162.606 74.0269L163.522 74.1367ZM163.855 67.029H144.08V67.951H163.855V67.029ZM142.765 74.5527L140.392 93.8008L141.307 93.9136L143.68 74.6655L142.765 74.5527ZM140.85 93.3962H134.258V94.3182H140.85V93.3962ZM134.715 93.9133L138.758 60.9543L137.843 60.8421L133.8 93.8011L134.715 93.9133ZM138.301 61.3592H171.26V60.4372H138.301V61.3592ZM170.802 60.8423L168.385 80.6177L169.3 80.7295L171.717 60.9541L170.802 60.8423ZM168.843 80.2126H157.856V81.1346H168.843V80.2126ZM157.51 80.9775L169.067 94.1611L169.761 93.5533L158.203 80.3697L157.51 80.9775ZM169.414 93.3962H160.098V94.3182H169.414V93.3962ZM160.444 93.5533L143.569 74.3052L142.876 74.913L159.751 94.1611L160.444 93.5533ZM179.016 87.2654L178.559 87.209L178.495 87.7264H179.016V87.2654ZM205.383 87.2654L205.841 87.3218L205.905 86.8044H205.383V87.2654ZM204.57 93.8572V94.3182H204.978L205.028 93.9136L204.57 93.8572ZM171.611 93.8572L171.154 93.8011L171.09 94.3182H171.611V93.8572ZM175.654 60.8982V60.4372H175.246L175.197 60.8421L175.654 60.8982ZM208.613 60.8982L209.071 60.9546L209.135 60.4372H208.613V60.8982ZM207.8 67.49V67.951H208.208L208.258 67.5464L207.8 67.49ZM181.433 67.49V67.029H181.024L180.975 67.4351L181.433 67.49ZM180.642 74.0818L180.184 74.0269L180.122 74.5428H180.642V74.0818ZM207.009 74.0818L207.467 74.1382L207.531 73.6208H207.009V74.0818ZM206.196 80.6736V81.1346H206.604L206.654 80.73L206.196 80.6736ZM179.829 80.6736V80.2126H179.421L179.372 80.6172L179.829 80.6736ZM179.016 87.7264H205.383V86.8044H179.016V87.7264ZM204.926 87.209L204.113 93.8008L205.028 93.9136L205.841 87.3218L204.926 87.209ZM204.57 93.3962H171.611V94.3182H204.57V93.3962ZM172.069 93.9133L176.112 60.9543L175.197 60.8421L171.154 93.8011L172.069 93.9133ZM175.654 61.3592H208.613V60.4372H175.654V61.3592ZM208.156 60.8418L207.343 67.4336L208.258 67.5464L209.071 60.9546L208.156 60.8418ZM207.8 67.029H181.433V67.951H207.8V67.029ZM180.975 67.4351L180.184 74.0269L181.1 74.1367L181.891 67.5449L180.975 67.4351ZM180.642 74.5428H207.009V73.6208H180.642V74.5428ZM206.552 74.0254L205.739 80.6172L206.654 80.73L207.467 74.1382L206.552 74.0254ZM206.196 80.2126H179.829V81.1346H206.196V80.2126ZM179.372 80.6172L178.559 87.209L179.474 87.3218L180.287 80.73L179.372 80.6172ZM235.574 74.0818L235.116 74.0257L235.053 74.5428H235.574V74.0818ZM244.363 74.0818L244.82 74.1382L244.884 73.6208H244.363V74.0818ZM243.55 80.6736V81.1346H243.957L244.007 80.73L243.55 80.6736ZM234.761 80.6736V80.2126H234.353L234.303 80.6175L234.761 80.6736ZM233.684 89.4626V89.9236H234.092L234.142 89.5187L233.684 89.4626ZM227.092 89.4626L226.635 89.4066L226.571 89.9236H227.092V89.4626ZM228.169 80.6736L228.626 80.7296L228.69 80.2126H228.169V80.6736ZM219.38 80.6736L218.922 80.6172L218.859 81.1346H219.38V80.6736ZM220.193 74.0818V73.6208H219.785L219.735 74.0254L220.193 74.0818ZM228.982 74.0818V74.5428H229.39L229.439 74.1378L228.982 74.0818ZM230.059 65.2927V64.8317H229.651L229.601 65.2367L230.059 65.2927ZM236.65 65.2927L237.108 65.3488L237.171 64.8317H236.65V65.2927ZM235.574 74.5428H244.363V73.6208H235.574V74.5428ZM243.905 74.0254L243.092 80.6172L244.007 80.73L244.82 74.1382L243.905 74.0254ZM243.55 80.2126H234.761V81.1346H243.55V80.2126ZM234.303 80.6175L233.227 89.4066L234.142 89.5187L235.218 80.7296L234.303 80.6175ZM233.684 89.0017H227.092V89.9236H233.684V89.0017ZM227.55 89.5187L228.626 80.7296L227.711 80.6175L226.635 89.4066L227.55 89.5187ZM228.169 80.2126H219.38V81.1346H228.169V80.2126ZM219.837 80.73L220.65 74.1382L219.735 74.0254L218.922 80.6172L219.837 80.73ZM220.193 74.5428H228.982V73.6208H220.193V74.5428ZM229.439 74.1378L230.516 65.3488L229.601 65.2367L228.524 74.0257L229.439 74.1378ZM230.059 65.7537H236.65V64.8317H230.059V65.7537ZM236.193 65.2367L235.116 74.0257L236.031 74.1378L237.108 65.3488L236.193 65.2367ZM275.916 67.49L276.373 67.5449L276.435 67.029H275.916V67.49ZM249.548 67.49L249.091 67.4336L249.027 67.951H249.548V67.49ZM250.361 60.8982V60.4372H249.954L249.904 60.8418L250.361 60.8982ZM283.32 60.8982L283.778 60.9541L283.841 60.4372H283.32V60.8982ZM280.903 80.6736V81.1346H281.311L281.361 80.7295L280.903 80.6736ZM254.536 80.6736V80.2126H254.129L254.079 80.6172L254.536 80.6736ZM253.723 87.2654L253.266 87.209L253.202 87.7264H253.723V87.2654ZM280.09 87.2654L280.548 87.3218L280.612 86.8044H280.09V87.2654ZM279.277 93.8572V94.3182H279.685L279.735 93.9136L279.277 93.8572ZM246.318 93.8572L245.861 93.8008L245.797 94.3182H246.318V93.8572ZM248.757 74.0818V73.6208H248.35L248.3 74.0254L248.757 74.0818ZM275.125 74.0818V74.5428H275.533L275.582 74.1367L275.125 74.0818ZM275.916 67.029H249.548V67.951H275.916V67.029ZM250.006 67.5464L250.819 60.9546L249.904 60.8418L249.091 67.4336L250.006 67.5464ZM250.361 61.3592H283.32V60.4372H250.361V61.3592ZM282.863 60.8423L280.446 80.6177L281.361 80.7295L283.778 60.9541L282.863 60.8423ZM280.903 80.2126H254.536V81.1346H280.903V80.2126ZM254.079 80.6172L253.266 87.209L254.181 87.3218L254.994 80.73L254.079 80.6172ZM253.723 87.7264H280.09V86.8044H253.723V87.7264ZM279.633 87.209L278.82 93.8008L279.735 93.9136L280.548 87.3218L279.633 87.209ZM279.277 93.3962H246.318V94.3182H279.277V93.3962ZM246.776 93.9136L249.215 74.1382L248.3 74.0254L245.861 93.8008L246.776 93.9136ZM248.757 74.5428H275.125V73.6208H248.757V74.5428ZM275.582 74.1367L276.373 67.5449L275.458 67.4351L274.667 74.0269L275.582 74.1367ZM287.715 60.8982V60.4372H287.307L287.257 60.8421L287.715 60.8982ZM320.674 60.8982L321.131 60.9543L321.195 60.4372H320.674V60.8982ZM316.631 93.8572V94.3182H317.039L317.088 93.9133L316.631 93.8572ZM283.672 93.8572L283.214 93.8011L283.151 94.3182H283.672V93.8572ZM293.494 67.49V67.029H293.086L293.036 67.4341L293.494 67.49ZM291.077 87.2654L290.619 87.2095L290.556 87.7264H291.077V87.2654ZM310.852 87.2654V87.7264H311.26L311.31 87.3213L310.852 87.2654ZM313.269 67.49L313.727 67.5459L313.79 67.029H313.269V67.49ZM287.715 61.3592H320.674V60.4372H287.715V61.3592ZM320.216 60.8421L316.173 93.8011L317.088 93.9133L321.131 60.9543L320.216 60.8421ZM316.631 93.3962H283.672V94.3182H316.631V93.3962ZM284.129 93.9133L288.172 60.9543L287.257 60.8421L283.214 93.8011L284.129 93.9133ZM293.036 67.4341L290.619 87.2095L291.534 87.3213L293.951 67.5459L293.036 67.4341ZM291.077 87.7264H310.852V86.8044H291.077V87.7264ZM311.31 87.3213L313.727 67.5459L312.811 67.4341L310.394 87.2095L311.31 87.3213ZM313.269 67.029H293.494V67.951H313.269V67.029ZM325.068 60.8982V60.4372H324.66L324.611 60.8421L325.068 60.8982ZM358.027 60.8982L358.485 60.9543L358.548 60.4372H358.027V60.8982ZM353.984 93.8572V94.3182H354.392L354.442 93.9133L353.984 93.8572ZM321.025 93.8572L320.568 93.8011L320.504 94.3182H321.025V93.8572ZM330.847 67.49V67.029H330.439L330.39 67.4341L330.847 67.49ZM328.43 87.2654L327.973 87.2095L327.909 87.7264H328.43V87.2654ZM348.206 87.2654V87.7264H348.614L348.663 87.3213L348.206 87.2654ZM350.623 67.49L351.08 67.5459L351.143 67.029H350.623V67.49ZM325.068 61.3592H358.027V60.4372H325.068V61.3592ZM357.57 60.8421L353.527 93.8011L354.442 93.9133L358.485 60.9543L357.57 60.8421ZM353.984 93.3962H321.025V94.3182H353.984V93.3962ZM321.483 93.9133L325.526 60.9543L324.611 60.8421L320.568 93.8011L321.483 93.9133ZM330.39 67.4341L327.973 87.2095L328.888 87.3213L331.305 67.5459L330.39 67.4341ZM328.43 87.7264H348.206V86.8044H328.43V87.7264ZM348.663 87.3213L351.08 67.5459L350.165 67.4341L347.748 87.2095L348.663 87.3213ZM350.623 67.029H330.847V67.951H350.623V67.029Z" fill="white"/>
<path d="M2.19727 103.338L3.01025 96.7458H29.3774L30.1904 90.1541H3.82324L6.24023 70.3787H39.1992L38.3862 76.9705H12.019L11.228 83.5623H37.5952L35.1562 103.338H2.19727ZM76.5527 70.3787L75.7397 76.9705H49.3726L46.9556 96.7458H73.3228L72.5098 103.338H39.5508L43.5938 70.3787H76.5527ZM80.9473 70.3787H113.906L109.863 103.338H76.9043L80.9473 70.3787ZM86.7261 76.9705L84.3091 96.7458H104.084L106.501 76.9705H86.7261ZM124.08 76.9705L123.289 83.5623H143.064L143.855 76.9705H124.08ZM123.223 84.0896L120.85 103.338H114.258L118.301 70.3787H151.26L148.843 90.1541H137.856L149.414 103.338H140.098L123.223 84.0896ZM159.016 96.7458H185.383L184.57 103.338H151.611L155.654 70.3787H188.613L187.8 76.9705H161.433L160.642 83.5623H187.009L186.196 90.1541H159.829L159.016 96.7458ZM215.574 83.5623H224.363L223.55 90.1541H214.761L213.684 98.9431H207.092L208.169 90.1541H199.38L200.193 83.5623H208.982L210.059 74.7732H216.65L215.574 83.5623ZM255.916 76.9705H229.548L230.361 70.3787H263.32L260.903 90.1541H234.536L233.723 96.7458H260.09L259.277 103.338H226.318L228.757 83.5623H255.125L255.916 76.9705ZM267.715 70.3787H300.674L296.631 103.338H263.672L267.715 70.3787ZM273.494 76.9705L271.077 96.7458H290.852L293.269 76.9705H273.494ZM305.068 70.3787H338.027L333.984 103.338H301.025L305.068 70.3787ZM310.847 76.9705L308.43 96.7458H328.206L330.623 76.9705H310.847Z" fill="white"/>
<path d="M2.19727 103.338L1.73975 103.281L1.67594 103.799H2.19727V103.338ZM3.01025 96.7458V96.2849H2.60264L2.55274 96.6894L3.01025 96.7458ZM29.3774 96.7458V97.2068H29.7851L29.835 96.8023L29.3774 96.7458ZM30.1904 90.1541L30.6479 90.2105L30.7118 89.6931H30.1904V90.1541ZM3.82324 90.1541L3.36567 90.0981L3.30249 90.615H3.82324V90.1541ZM6.24023 70.3787V69.9177H5.83217L5.78266 70.3227L6.24023 70.3787ZM39.1992 70.3787L39.6567 70.4351L39.7205 69.9177H39.1992V70.3787ZM38.3862 76.9705V77.4314H38.7938L38.8437 77.0269L38.3862 76.9705ZM12.019 76.9705V76.5095H11.6101L11.5613 76.9155L12.019 76.9705ZM11.228 83.5623L10.7703 83.5073L10.7084 84.0232H11.228V83.5623ZM37.5952 83.5623L38.0527 83.6187L38.1165 83.1013H37.5952V83.5623ZM35.1562 103.338V103.799H35.5639L35.6138 103.394L35.1562 103.338ZM2.65478 103.394L3.46776 96.8023L2.55274 96.6894L1.73975 103.281L2.65478 103.394ZM3.01025 97.2068H29.3774V96.2849H3.01025V97.2068ZM29.835 96.8023L30.6479 90.2105L29.7329 90.0976L28.9199 96.6894L29.835 96.8023ZM30.1904 89.6931H3.82324V90.615H30.1904V89.6931ZM4.28081 90.21L6.69781 70.4346L5.78266 70.3227L3.36567 90.0981L4.28081 90.21ZM6.24023 70.8396H39.1992V69.9177H6.24023V70.8396ZM38.7417 70.3222L37.9287 76.914L38.8437 77.0269L39.6567 70.4351L38.7417 70.3222ZM38.3862 76.5095H12.019V77.4314H38.3862V76.5095ZM11.5613 76.9155L10.7703 83.5073L11.6857 83.6172L12.4767 77.0254L11.5613 76.9155ZM11.228 84.0232H37.5952V83.1013H11.228V84.0232ZM37.1377 83.5058L34.6987 103.281L35.6138 103.394L38.0527 83.6187L37.1377 83.5058ZM35.1562 102.877H2.19727V103.799H35.1562V102.877ZM76.5527 70.3787L77.0102 70.4351L77.0741 69.9177H76.5527V70.3787ZM75.7397 76.9705V77.4314H76.1474L76.1973 77.0269L75.7397 76.9705ZM49.3726 76.9705V76.5095H48.9645L48.915 76.9145L49.3726 76.9705ZM46.9556 96.7458L46.498 96.6899L46.4348 97.2068H46.9556V96.7458ZM73.3228 96.7458L73.7803 96.8023L73.8441 96.2849H73.3228V96.7458ZM72.5098 103.338V103.799H72.9174L72.9673 103.394L72.5098 103.338ZM39.5508 103.338L39.0932 103.282L39.0298 103.799H39.5508V103.338ZM43.5938 70.3787V69.9177H43.1859L43.1362 70.3225L43.5938 70.3787ZM76.0952 70.3222L75.2822 76.914L76.1973 77.0269L77.0102 70.4351L76.0952 70.3222ZM75.7397 76.5095H49.3726V77.4314H75.7397V76.5095ZM48.915 76.9145L46.498 96.6899L47.4131 96.8018L49.8301 77.0264L48.915 76.9145ZM46.9556 97.2068H73.3228V96.2849H46.9556V97.2068ZM72.8652 96.6894L72.0523 103.281L72.9673 103.394L73.7803 96.8023L72.8652 96.6894ZM72.5098 102.877H39.5508V103.799H72.5098V102.877ZM40.0083 103.394L44.0513 70.4348L43.1362 70.3225L39.0932 103.282L40.0083 103.394ZM43.5938 70.8396H76.5527V69.9177H43.5938V70.8396ZM80.9473 70.3787V69.9177H80.5394L80.4897 70.3225L80.9473 70.3787ZM113.906 70.3787L114.364 70.4348L114.427 69.9177H113.906V70.3787ZM109.863 103.338V103.799H110.271L110.321 103.394L109.863 103.338ZM76.9043 103.338L76.4467 103.282L76.3833 103.799H76.9043V103.338ZM86.7261 76.9705V76.5095H86.318L86.2685 76.9145L86.7261 76.9705ZM84.3091 96.7458L83.8515 96.6899L83.7883 97.2068H84.3091V96.7458ZM104.084 96.7458V97.2068H104.493L104.542 96.8018L104.084 96.7458ZM106.501 76.9705L106.959 77.0264L107.022 76.5095H106.501V76.9705ZM80.9473 70.8396H113.906V69.9177H80.9473V70.8396ZM113.449 70.3225L109.406 103.282L110.321 103.394L114.364 70.4348L113.449 70.3225ZM109.863 102.877H76.9043V103.799H109.863V102.877ZM77.3618 103.394L81.4048 70.4348L80.4897 70.3225L76.4467 103.282L77.3618 103.394ZM86.2685 76.9145L83.8515 96.6899L84.7667 96.8018L87.1836 77.0264L86.2685 76.9145ZM84.3091 97.2068H104.084V96.2849H84.3091V97.2068ZM104.542 96.8018L106.959 77.0264L106.044 76.9145L103.627 96.6899L104.542 96.8018ZM106.501 76.5095H86.7261V77.4314H106.501V76.5095ZM124.08 76.9705V76.5095H123.671L123.622 76.9155L124.08 76.9705ZM123.289 83.5623L122.831 83.5073L122.769 84.0232H123.289V83.5623ZM143.064 83.5623V84.0232H143.473L143.522 83.6172L143.064 83.5623ZM143.855 76.9705L144.313 77.0254L144.375 76.5095H143.855V76.9705ZM123.223 84.0896L123.569 83.7857L122.891 83.0121L122.765 84.0332L123.223 84.0896ZM120.85 103.338V103.799H121.257L121.307 103.394L120.85 103.338ZM114.258 103.338L113.8 103.282L113.737 103.799H114.258V103.338ZM118.301 70.3787V69.9177H117.893L117.843 70.3225L118.301 70.3787ZM151.26 70.3787L151.717 70.4346L151.781 69.9177H151.26V70.3787ZM148.843 90.1541V90.615H149.251L149.3 90.21L148.843 90.1541ZM137.856 90.1541V89.6931H136.839L137.51 90.4579L137.856 90.1541ZM149.414 103.338V103.799H150.431L149.761 103.034L149.414 103.338ZM140.098 103.338L139.751 103.642L139.889 103.799H140.098V103.338ZM123.622 76.9155L122.831 83.5073L123.746 83.6172L124.537 77.0254L123.622 76.9155ZM123.289 84.0232H143.064V83.1013H123.289V84.0232ZM143.522 83.6172L144.313 77.0254L143.397 76.9155L142.606 83.5073L143.522 83.6172ZM143.855 76.5095H124.08V77.4314H143.855V76.5095ZM122.765 84.0332L120.392 103.281L121.307 103.394L123.68 84.146L122.765 84.0332ZM120.85 102.877H114.258V103.799H120.85V102.877ZM114.715 103.394L118.758 70.4348L117.843 70.3225L113.8 103.282L114.715 103.394ZM118.301 70.8396H151.26V69.9177H118.301V70.8396ZM150.802 70.3227L148.385 90.0981L149.3 90.21L151.717 70.4346L150.802 70.3227ZM148.843 89.6931H137.856V90.615H148.843V89.6931ZM137.51 90.4579L149.067 103.642L149.761 103.034L138.203 89.8502L137.51 90.4579ZM149.414 102.877H140.098V103.799H149.414V102.877ZM140.444 103.034L123.569 83.7857L122.876 84.3935L139.751 103.642L140.444 103.034ZM159.016 96.7458L158.559 96.6894L158.495 97.2068H159.016V96.7458ZM185.383 96.7458L185.841 96.8023L185.905 96.2849H185.383V96.7458ZM184.57 103.338V103.799H184.978L185.028 103.394L184.57 103.338ZM151.611 103.338L151.154 103.282L151.09 103.799H151.611V103.338ZM155.654 70.3787V69.9177H155.246L155.197 70.3225L155.654 70.3787ZM188.613 70.3787L189.071 70.4351L189.135 69.9177H188.613V70.3787ZM187.8 76.9705V77.4314H188.208L188.258 77.0269L187.8 76.9705ZM161.433 76.9705V76.5095H161.024L160.975 76.9155L161.433 76.9705ZM160.642 83.5623L160.184 83.5073L160.122 84.0232H160.642V83.5623ZM187.009 83.5623L187.467 83.6187L187.531 83.1013H187.009V83.5623ZM186.196 90.1541V90.615H186.604L186.654 90.2105L186.196 90.1541ZM159.829 90.1541V89.6931H159.421L159.372 90.0976L159.829 90.1541ZM159.016 97.2068H185.383V96.2849H159.016V97.2068ZM184.926 96.6894L184.113 103.281L185.028 103.394L185.841 96.8023L184.926 96.6894ZM184.57 102.877H151.611V103.799H184.57V102.877ZM152.069 103.394L156.112 70.4348L155.197 70.3225L151.154 103.282L152.069 103.394ZM155.654 70.8396H188.613V69.9177H155.654V70.8396ZM188.156 70.3222L187.343 76.914L188.258 77.0269L189.071 70.4351L188.156 70.3222ZM187.8 76.5095H161.433V77.4314H187.8V76.5095ZM160.975 76.9155L160.184 83.5073L161.1 83.6172L161.891 77.0254L160.975 76.9155ZM160.642 84.0232H187.009V83.1013H160.642V84.0232ZM186.552 83.5058L185.739 90.0976L186.654 90.2105L187.467 83.6187L186.552 83.5058ZM186.196 89.6931H159.829V90.615H186.196V89.6931ZM159.372 90.0976L158.559 96.6894L159.474 96.8023L160.287 90.2105L159.372 90.0976ZM215.574 83.5623L215.116 83.5062L215.053 84.0232H215.574V83.5623ZM224.363 83.5623L224.82 83.6187L224.884 83.1013H224.363V83.5623ZM223.55 90.1541V90.615H223.957L224.007 90.2105L223.55 90.1541ZM214.761 90.1541V89.6931H214.353L214.303 90.098L214.761 90.1541ZM213.684 98.9431V99.4041H214.092L214.142 98.9992L213.684 98.9431ZM207.092 98.9431L206.635 98.8871L206.571 99.4041H207.092V98.9431ZM208.169 90.1541L208.626 90.2101L208.69 89.6931H208.169V90.1541ZM199.38 90.1541L198.922 90.0976L198.859 90.615H199.38V90.1541ZM200.193 83.5623V83.1013H199.785L199.735 83.5058L200.193 83.5623ZM208.982 83.5623V84.0232H209.39L209.439 83.6183L208.982 83.5623ZM210.059 74.7732V74.3122H209.651L209.601 74.7171L210.059 74.7732ZM216.65 74.7732L217.108 74.8292L217.171 74.3122H216.65V74.7732ZM215.574 84.0232H224.363V83.1013H215.574V84.0232ZM223.905 83.5058L223.092 90.0976L224.007 90.2105L224.82 83.6187L223.905 83.5058ZM223.55 89.6931H214.761V90.615H223.55V89.6931ZM214.303 90.098L213.227 98.8871L214.142 98.9992L215.218 90.2101L214.303 90.098ZM213.684 98.4821H207.092V99.4041H213.684V98.4821ZM207.55 98.9992L208.626 90.2101L207.711 90.098L206.635 98.8871L207.55 98.9992ZM208.169 89.6931H199.38V90.615H208.169V89.6931ZM199.837 90.2105L200.65 83.6187L199.735 83.5058L198.922 90.0976L199.837 90.2105ZM200.193 84.0232H208.982V83.1013H200.193V84.0232ZM209.439 83.6183L210.516 74.8292L209.601 74.7171L208.524 83.5062L209.439 83.6183ZM210.059 75.2342H216.65V74.3122H210.059V75.2342ZM216.193 74.7171L215.116 83.5062L216.031 83.6183L217.108 74.8292L216.193 74.7171ZM255.916 76.9705L256.373 77.0254L256.435 76.5095H255.916V76.9705ZM229.548 76.9705L229.091 76.914L229.027 77.4314H229.548V76.9705ZM230.361 70.3787V69.9177H229.954L229.904 70.3222L230.361 70.3787ZM263.32 70.3787L263.778 70.4346L263.841 69.9177H263.32V70.3787ZM260.903 90.1541V90.615H261.311L261.361 90.21L260.903 90.1541ZM234.536 90.1541V89.6931H234.129L234.079 90.0976L234.536 90.1541ZM233.723 96.7458L233.266 96.6894L233.202 97.2068H233.723V96.7458ZM260.09 96.7458L260.548 96.8023L260.612 96.2849H260.09V96.7458ZM259.277 103.338V103.799H259.685L259.735 103.394L259.277 103.338ZM226.318 103.338L225.861 103.281L225.797 103.799H226.318V103.338ZM228.757 83.5623V83.1013H228.35L228.3 83.5058L228.757 83.5623ZM255.125 83.5623V84.0232H255.533L255.582 83.6172L255.125 83.5623ZM255.916 76.5095H229.548V77.4314H255.916V76.5095ZM230.006 77.0269L230.819 70.4351L229.904 70.3222L229.091 76.914L230.006 77.0269ZM230.361 70.8396H263.32V69.9177H230.361V70.8396ZM262.863 70.3227L260.446 90.0981L261.361 90.21L263.778 70.4346L262.863 70.3227ZM260.903 89.6931H234.536V90.615H260.903V89.6931ZM234.079 90.0976L233.266 96.6894L234.181 96.8023L234.994 90.2105L234.079 90.0976ZM233.723 97.2068H260.09V96.2849H233.723V97.2068ZM259.633 96.6894L258.82 103.281L259.735 103.394L260.548 96.8023L259.633 96.6894ZM259.277 102.877H226.318V103.799H259.277V102.877ZM226.776 103.394L229.215 83.6187L228.3 83.5058L225.861 103.281L226.776 103.394ZM228.757 84.0232H255.125V83.1013H228.757V84.0232ZM255.582 83.6172L256.373 77.0254L255.458 76.9155L254.667 83.5073L255.582 83.6172ZM267.715 70.3787V69.9177H267.307L267.257 70.3225L267.715 70.3787ZM300.674 70.3787L301.131 70.4348L301.195 69.9177H300.674V70.3787ZM296.631 103.338V103.799H297.039L297.088 103.394L296.631 103.338ZM263.672 103.338L263.214 103.282L263.151 103.799H263.672V103.338ZM273.494 76.9705V76.5095H273.086L273.036 76.9145L273.494 76.9705ZM271.077 96.7458L270.619 96.6899L270.556 97.2068H271.077V96.7458ZM290.852 96.7458V97.2068H291.26L291.31 96.8018L290.852 96.7458ZM293.269 76.9705L293.727 77.0264L293.79 76.5095H293.269V76.9705ZM267.715 70.8396H300.674V69.9177H267.715V70.8396ZM300.216 70.3225L296.173 103.282L297.088 103.394L301.131 70.4348L300.216 70.3225ZM296.631 102.877H263.672V103.799H296.631V102.877ZM264.129 103.394L268.172 70.4348L267.257 70.3225L263.214 103.282L264.129 103.394ZM273.036 76.9145L270.619 96.6899L271.534 96.8018L273.951 77.0264L273.036 76.9145ZM271.077 97.2068H290.852V96.2849H271.077V97.2068ZM291.31 96.8018L293.727 77.0264L292.811 76.9145L290.394 96.6899L291.31 96.8018ZM293.269 76.5095H273.494V77.4314H293.269V76.5095ZM305.068 70.3787V69.9177H304.66L304.611 70.3225L305.068 70.3787ZM338.027 70.3787L338.485 70.4348L338.548 69.9177H338.027V70.3787ZM333.984 103.338V103.799H334.392L334.442 103.394L333.984 103.338ZM301.025 103.338L300.568 103.282L300.504 103.799H301.025V103.338ZM310.847 76.9705V76.5095H310.439L310.39 76.9145L310.847 76.9705ZM308.43 96.7458L307.973 96.6899L307.909 97.2068H308.43V96.7458ZM328.206 96.7458V97.2068H328.614L328.663 96.8018L328.206 96.7458ZM330.623 76.9705L331.08 77.0264L331.143 76.5095H330.623V76.9705ZM305.068 70.8396H338.027V69.9177H305.068V70.8396ZM337.57 70.3225L333.527 103.282L334.442 103.394L338.485 70.4348L337.57 70.3225ZM333.984 102.877H301.025V103.799H333.984V102.877ZM301.483 103.394L305.526 70.4348L304.611 70.3225L300.568 103.282L301.483 103.394ZM310.39 76.9145L307.973 96.6899L308.888 96.8018L311.305 77.0264L310.39 76.9145ZM308.43 97.2068H328.206V96.2849H308.43V97.2068ZM328.663 96.8018L331.08 77.0264L330.165 76.9145L327.748 96.6899L328.663 96.8018ZM330.623 76.5095H310.847V77.4314H330.623V76.5095Z" fill="#0000FF"/>
</svg>
