<svg width="801" height="656" viewBox="0 0 801 656" fill="none" xmlns="http://www.w3.org/2000/svg">
<path d="M6.48 14.66C9.7 15.46 11.8 16 11.8 19.26C11.8 21.34 10.26 23.28 6.64 23.28C3.26 23.28 0.64 21.48 0.44 18.2H2.24C2.44 20.16 3.64 21.68 6.64 21.68C9.12 21.68 10 20.54 10 19.26C10 17.3 8.94 16.94 5.74 16.2C3.6 15.7 1.04 14.96 1.04 12.18C1.04 9.92 2.78 8.42 5.94 8.42C8.98 8.42 11.1 9.98 11.34 12.94H9.54C9.28 11.02 8.2 10.02 5.94 10.02C3.92 10.02 2.84 10.8 2.84 11.98C2.84 13.88 4.38 14.14 6.48 14.66ZM18.2393 14.2H16.2393V20.34C16.2393 21.5 16.8793 21.7 18.2393 21.6V23C17.8793 23.08 17.4593 23.12 17.0393 23.12C15.6793 23.12 14.6393 22.58 14.6393 20.5V14.2H13.1393V12.8H14.6393V9.4H16.2393V12.8H18.2393V14.2ZM26.8523 12.8H28.4523V23H26.8523V21.78H26.8123C26.2723 22.5 25.1923 23.28 23.4523 23.28C21.5923 23.28 20.0323 22.26 20.0323 19.92V12.8H21.6323V19.52C21.6323 20.84 22.2523 21.88 23.8523 21.88C25.6523 21.88 26.8523 20.74 26.8523 19.16V12.8ZM38.0985 8.7H39.6985V23H38.0985V21.74H38.0585C37.4585 22.52 36.4985 23.28 34.8585 23.28C32.2985 23.28 30.2585 21.26 30.2585 17.9C30.2585 14.54 32.2985 12.52 34.8585 12.52C36.4985 12.52 37.4585 13.24 38.0585 14.12H38.0985V8.7ZM35.0185 21.88C36.9185 21.88 38.0985 20.3 38.0985 17.9C38.0985 15.5 36.9185 13.92 35.0185 13.92C32.9185 13.92 31.8585 15.9 31.8585 17.9C31.8585 19.9 32.9185 21.88 35.0185 21.88ZM46.4129 21.88C48.4529 21.88 49.2129 20.56 49.3929 19.86H50.9929C50.4729 21.76 49.0129 23.28 46.4729 23.28C43.3729 23.28 41.4929 21.1 41.4929 17.9C41.4929 14.5 43.4129 12.52 46.3929 12.52C49.5929 12.52 51.1529 14.7 51.1529 18.32H43.0929C43.0929 20.16 44.1929 21.88 46.4129 21.88ZM46.3929 13.92C44.4729 13.92 43.0929 15.28 43.0929 16.92H49.5529C49.5529 15.28 48.3129 13.92 46.3929 13.92ZM57.9167 12.52C59.7767 12.52 61.3367 13.54 61.3367 15.88V23H59.7367V16.28C59.7367 14.96 59.1167 13.92 57.5167 13.92C55.7167 13.92 54.5167 15.06 54.5167 16.64V23H52.9167V12.8H54.5167V14.02H54.5567C55.0967 13.3 56.1767 12.52 57.9167 12.52ZM67.9076 14.2H65.9076V20.34C65.9076 21.5 66.5476 21.7 67.9076 21.6V23C67.5476 23.08 67.1276 23.12 66.7076 23.12C65.3476 23.12 64.3076 22.58 64.3076 20.5V14.2H62.8076V12.8H64.3076V9.4H65.9076V12.8H67.9076V14.2ZM73.9006 16.94C75.7206 17.38 77.7806 17.68 77.7806 20.2C77.7806 22.06 76.0806 23.28 73.7606 23.28C70.6406 23.28 69.2006 21.8 69.1006 19.6H70.7006C70.8006 20.74 71.2006 21.88 73.7606 21.88C75.5006 21.88 76.1806 20.98 76.1806 20.3C76.1806 18.82 74.8406 18.74 73.3806 18.38C71.8206 18 69.5006 17.82 69.5006 15.42C69.5006 13.82 70.9206 12.52 73.3206 12.52C75.8606 12.52 77.2206 13.96 77.3806 15.72H75.7806C75.6206 14.94 75.2406 13.92 73.3206 13.92C71.8806 13.92 71.1006 14.5 71.1006 15.3C71.1006 16.5 72.4806 16.6 73.9006 16.94ZM0.08 42.8H1.84L4.16 51.26H4.2L6.48 42.8H8.18L10.48 51.26H10.52L12.84 42.8H14.6L11.34 53H9.64L7.34 44.58H7.3L5.04 53H3.34L0.08 42.8ZM20.9673 42.52C22.8273 42.52 24.3873 43.54 24.3873 45.88V53H22.7873V46.28C22.7873 44.96 22.1673 43.92 20.5673 43.92C18.7673 43.92 17.5673 45.06 17.5673 46.64V53H15.9673V38.7H17.5673V44.02H17.6073C18.1473 43.3 19.2273 42.52 20.9673 42.52ZM31.1334 53.28C28.0134 53.28 26.1334 51.08 26.1334 47.9C26.1334 44.72 28.0134 42.52 31.1334 42.52C34.2334 42.52 36.1134 44.72 36.1134 47.9C36.1134 51.08 34.2334 53.28 31.1334 53.28ZM31.1334 51.88C33.4134 51.88 34.5134 50.08 34.5134 47.9C34.5134 45.72 33.4134 43.92 31.1334 43.92C28.8334 43.92 27.7334 45.72 27.7334 47.9C27.7334 50.08 28.8334 51.88 31.1334 51.88ZM8.34 76.48C8.26 75.36 7.5 73.92 5.46 73.92C3.04 73.92 2.12 75.98 2.12 77.9C2.12 79.82 3.04 81.88 5.46 81.88C7.52 81.88 8.26 80.46 8.34 79.24H9.94C9.8 81.56 7.98 83.28 5.46 83.28C2.48 83.28 0.52 81.1 0.52 77.9C0.52 74.7 2.48 72.52 5.46 72.52C7.98 72.52 9.7 74.2 9.94 76.48H8.34ZM16.0708 83.28C12.9508 83.28 11.0708 81.08 11.0708 77.9C11.0708 74.72 12.9508 72.52 16.0708 72.52C19.1708 72.52 21.0508 74.72 21.0508 77.9C21.0508 81.08 19.1708 83.28 16.0708 83.28ZM16.0708 81.88C18.3508 81.88 19.4508 80.08 19.4508 77.9C19.4508 75.72 18.3508 73.92 16.0708 73.92C13.7708 73.92 12.6708 75.72 12.6708 77.9C12.6708 80.08 13.7708 81.88 16.0708 81.88ZM33.5062 72.52C35.5662 72.52 36.5662 73.74 36.5662 75.88V83H34.9662V76.28C34.9662 74.96 34.7062 73.92 33.1062 73.92C31.5062 73.92 30.5062 75.06 30.5062 76.64V83H28.9062V76.28C28.9062 74.96 28.6462 73.92 27.0462 73.92C25.4462 73.92 24.4462 75.06 24.4462 76.64V83H22.8462V72.8H24.4462V74.02H24.4862C25.0262 73.3 25.9062 72.52 27.4462 72.52C28.9062 72.52 29.7462 73.14 30.1662 74.28H30.2062C30.9062 73.32 31.9662 72.52 33.5062 72.52ZM38.9454 68.7H40.5454V83H38.9454V68.7ZM47.3309 81.88C49.3709 81.88 50.1309 80.56 50.3109 79.86H51.9109C51.3909 81.76 49.9309 83.28 47.3909 83.28C44.2909 83.28 42.4109 81.1 42.4109 77.9C42.4109 74.5 44.3309 72.52 47.3109 72.52C50.5109 72.52 52.0709 74.7 52.0709 78.32H44.0109C44.0109 80.16 45.1109 81.88 47.3309 81.88ZM47.3109 73.92C45.3909 73.92 44.0109 75.28 44.0109 76.92H50.4709C50.4709 75.28 49.2309 73.92 47.3109 73.92ZM5.54 104.2H3.54V110.34C3.54 111.5 4.18 111.7 5.54 111.6V113C5.18 113.08 4.76 113.12 4.34 113.12C2.98 113.12 1.94 112.58 1.94 110.5V104.2H0.44V102.8H1.94V99.4H3.54V102.8H5.54V104.2ZM11.6354 111.88C13.6754 111.88 14.4354 110.56 14.6154 109.86H16.2154C15.6954 111.76 14.2354 113.28 11.6954 113.28C8.59538 113.28 6.71538 111.1 6.71538 107.9C6.71538 104.5 8.63538 102.52 11.6154 102.52C14.8154 102.52 16.3754 104.7 16.3754 108.32H8.31538C8.31538 110.16 9.41538 111.88 11.6354 111.88ZM11.6154 103.92C9.69538 103.92 8.31538 105.28 8.31538 106.92H14.7754C14.7754 105.28 13.5354 103.92 11.6154 103.92ZM25.3992 98.7H26.9992V113H25.3992V111.74H25.3592C24.7592 112.52 23.7992 113.28 22.1592 113.28C19.5992 113.28 17.5592 111.26 17.5592 107.9C17.5592 104.54 19.5992 102.52 22.1592 102.52C23.7992 102.52 24.7592 103.24 25.3592 104.12H25.3992V98.7ZM22.3192 111.88C24.2192 111.88 25.3992 110.3 25.3992 107.9C25.3992 105.5 24.2192 103.92 22.3192 103.92C20.2192 103.92 19.1592 105.9 19.1592 107.9C19.1592 109.9 20.2192 111.88 22.3192 111.88ZM37.9973 104.2H35.9973V110.34C35.9973 111.5 36.6373 111.7 37.9973 111.6V113C37.6373 113.08 37.2173 113.12 36.7973 113.12C35.4373 113.12 34.3973 112.58 34.3973 110.5V104.2H32.8973V102.8H34.3973V99.4H35.9973V102.8H37.9973V104.2ZM44.8503 102.52C46.7103 102.52 48.2703 103.54 48.2703 105.88V113H46.6703V106.28C46.6703 104.96 46.0503 103.92 44.4503 103.92C42.6503 103.92 41.4503 105.06 41.4503 106.64V113H39.8503V98.7H41.4503V104.02H41.4903C42.0303 103.3 43.1103 102.52 44.8503 102.52ZM54.9365 111.88C56.9765 111.88 57.7365 110.56 57.9165 109.86H59.5165C58.9965 111.76 57.5365 113.28 54.9965 113.28C51.8965 113.28 50.0165 111.1 50.0165 107.9C50.0165 104.5 51.9365 102.52 54.9165 102.52C58.1165 102.52 59.6765 104.7 59.6765 108.32H51.6165C51.6165 110.16 52.7165 111.88 54.9365 111.88ZM54.9165 103.92C52.9965 103.92 51.6165 105.28 51.6165 106.92H58.0765C58.0765 105.28 56.8365 103.92 54.9165 103.92ZM8.34 136.48C8.26 135.36 7.5 133.92 5.46 133.92C3.04 133.92 2.12 135.98 2.12 137.9C2.12 139.82 3.04 141.88 5.46 141.88C7.52 141.88 8.26 140.46 8.34 139.24H9.94C9.8 141.56 7.98 143.28 5.46 143.28C2.48 143.28 0.52 141.1 0.52 137.9C0.52 134.7 2.48 132.52 5.46 132.52C7.98 132.52 9.7 134.2 9.94 136.48H8.34ZM16.0708 143.28C12.9508 143.28 11.0708 141.08 11.0708 137.9C11.0708 134.72 12.9508 132.52 16.0708 132.52C19.1708 132.52 21.0508 134.72 21.0508 137.9C21.0508 141.08 19.1708 143.28 16.0708 143.28ZM16.0708 141.88C18.3508 141.88 19.4508 140.08 19.4508 137.9C19.4508 135.72 18.3508 133.92 16.0708 133.92C13.7708 133.92 12.6708 135.72 12.6708 137.9C12.6708 140.08 13.7708 141.88 16.0708 141.88ZM29.6062 132.8H31.2062V143H29.6062V141.78H29.5662C29.0262 142.5 27.9462 143.28 26.2062 143.28C24.3462 143.28 22.7862 142.26 22.7862 139.92V132.8H24.3862V139.52C24.3862 140.84 25.0062 141.88 26.6062 141.88C28.4062 141.88 29.6062 140.74 29.6062 139.16V132.8ZM38.0524 132.52C38.4324 132.52 38.7124 132.54 38.9924 132.58V134.18H38.9524C36.7324 133.82 35.1924 135.38 35.1924 137.56V143H33.5924V132.8H35.1924V134.82H35.2324C35.7724 133.48 36.5924 132.52 38.0524 132.52ZM44.7676 136.94C46.5876 137.38 48.6476 137.68 48.6476 140.2C48.6476 142.06 46.9476 143.28 44.6276 143.28C41.5076 143.28 40.0676 141.8 39.9676 139.6H41.5676C41.6676 140.74 42.0676 141.88 44.6276 141.88C46.3676 141.88 47.0476 140.98 47.0476 140.3C47.0476 138.82 45.7076 138.74 44.2476 138.38C42.6876 138 40.3676 137.82 40.3676 135.42C40.3676 133.82 41.7876 132.52 44.1876 132.52C46.7276 132.52 48.0876 133.96 48.2476 135.72H46.6476C46.4876 134.94 46.1076 133.92 44.1876 133.92C42.7476 133.92 41.9676 134.5 41.9676 135.3C41.9676 136.5 43.3476 136.6 44.7676 136.94ZM54.913 141.88C56.953 141.88 57.713 140.56 57.893 139.86H59.493C58.973 141.76 57.513 143.28 54.973 143.28C51.873 143.28 49.993 141.1 49.993 137.9C49.993 134.5 51.913 132.52 54.893 132.52C58.093 132.52 59.653 134.7 59.653 138.32H51.593C51.593 140.16 52.693 141.88 54.913 141.88ZM54.893 133.92C52.973 133.92 51.593 135.28 51.593 136.92H58.053C58.053 135.28 56.813 133.92 54.893 133.92Z" fill="#141720"/>
<line x1="95.0176" y1="8.28052" x2="95.0176" y2="617.358" stroke="#141720"/>
<line x1="94.5176" y1="616.857" x2="800" y2="616.857" stroke="#141720"/>
<path d="M108.867 34.0421L94.5177 8.28052L80.1689 34.0421" stroke="#141720"/>
<path d="M777.68 633.919L800 617.358L777.68 600.797" stroke="#141720"/>
<path d="M118.348 651.678C114.148 651.678 111.348 648.538 111.348 644.238C111.348 639.938 114.148 636.818 118.348 636.818C122.548 636.818 125.348 639.938 125.348 644.238C125.348 648.538 122.548 651.678 118.348 651.678ZM118.348 650.078C121.948 650.078 123.548 647.318 123.548 644.238C123.548 641.158 121.948 638.418 118.348 638.418C114.748 638.418 113.148 641.158 113.148 644.238C113.148 647.318 114.748 650.078 118.348 650.078ZM134.674 644.878C134.594 643.758 133.834 642.318 131.794 642.318C129.374 642.318 128.454 644.378 128.454 646.298C128.454 648.218 129.374 650.278 131.794 650.278C133.854 650.278 134.594 648.858 134.674 647.638H136.274C136.134 649.958 134.314 651.678 131.794 651.678C128.814 651.678 126.854 649.498 126.854 646.298C126.854 643.098 128.814 640.918 131.794 640.918C134.314 640.918 136.034 642.598 136.274 644.878H134.674ZM142.424 642.598H140.424V648.738C140.424 649.898 141.064 650.098 142.424 649.998V651.398C142.064 651.478 141.644 651.518 141.224 651.518C139.864 651.518 138.824 650.978 138.824 648.898V642.598H137.324V641.198H138.824V637.798H140.424V641.198H142.424V642.598ZM148.6 651.678C145.48 651.678 143.6 649.478 143.6 646.298C143.6 643.118 145.48 640.918 148.6 640.918C151.7 640.918 153.58 643.118 153.58 646.298C153.58 649.478 151.7 651.678 148.6 651.678ZM148.6 650.278C150.88 650.278 151.98 648.478 151.98 646.298C151.98 644.118 150.88 642.318 148.6 642.318C146.3 642.318 145.2 644.118 145.2 646.298C145.2 648.478 146.3 650.278 148.6 650.278ZM160.215 640.918C162.775 640.918 164.815 642.938 164.815 646.298C164.815 649.658 162.775 651.678 160.215 651.678C158.575 651.678 157.615 650.918 157.015 650.138H156.975V651.398H155.375V637.098H156.975V642.518H157.015C157.615 641.638 158.575 640.918 160.215 640.918ZM160.055 650.278C162.155 650.278 163.215 648.298 163.215 646.298C163.215 644.298 162.155 642.318 160.055 642.318C158.155 642.318 156.975 643.898 156.975 646.298C156.975 648.698 158.155 650.278 160.055 650.278ZM170.95 650.278C172.99 650.278 173.75 648.958 173.93 648.258H175.53C175.01 650.158 173.55 651.678 171.01 651.678C167.91 651.678 166.03 649.498 166.03 646.298C166.03 642.898 167.95 640.918 170.93 640.918C174.13 640.918 175.69 643.098 175.69 646.718H167.63C167.63 648.558 168.73 650.278 170.95 650.278ZM170.93 642.318C169.01 642.318 167.63 643.678 167.63 645.318H174.09C174.09 643.678 172.85 642.318 170.93 642.318ZM181.913 640.918C182.293 640.918 182.573 640.938 182.853 640.978V642.578H182.813C180.593 642.218 179.053 643.778 179.053 645.958V651.398H177.453V641.198H179.053V643.218H179.093C179.633 641.878 180.453 640.918 181.913 640.918Z" fill="#141720"/>
<path d="M199.888 651.398V637.098H202.088L209.228 648.878H209.268V637.098H211.068V651.398H208.868L201.728 639.658H201.688V651.398H199.888ZM218.311 651.678C215.191 651.678 213.311 649.478 213.311 646.298C213.311 643.118 215.191 640.918 218.311 640.918C221.411 640.918 223.291 643.118 223.291 646.298C223.291 649.478 221.411 651.678 218.311 651.678ZM218.311 650.278C220.591 650.278 221.691 648.478 221.691 646.298C221.691 644.118 220.591 642.318 218.311 642.318C216.011 642.318 214.911 644.118 214.911 646.298C214.911 648.478 216.011 650.278 218.311 650.278ZM223.831 641.198H225.571L228.391 649.798H228.411L231.231 641.198H232.971L229.311 651.398H227.491L223.831 641.198ZM238.434 650.278C240.474 650.278 241.234 648.958 241.414 648.258H243.014C242.494 650.158 241.034 651.678 238.494 651.678C235.394 651.678 233.514 649.498 233.514 646.298C233.514 642.898 235.434 640.918 238.414 640.918C241.614 640.918 243.174 643.098 243.174 646.718H235.114C235.114 648.558 236.214 650.278 238.434 650.278ZM238.414 642.318C236.494 642.318 235.114 643.678 235.114 645.318H241.574C241.574 643.678 240.334 642.318 238.414 642.318ZM255.598 640.918C257.658 640.918 258.658 642.138 258.658 644.278V651.398H257.058V644.678C257.058 643.358 256.798 642.318 255.198 642.318C253.598 642.318 252.598 643.458 252.598 645.038V651.398H250.998V644.678C250.998 643.358 250.738 642.318 249.138 642.318C247.538 642.318 246.538 643.458 246.538 645.038V651.398H244.938V641.198H246.538V642.418H246.578C247.118 641.698 247.998 640.918 249.538 640.918C250.998 640.918 251.838 641.538 252.258 642.678H252.298C252.998 641.718 254.058 640.918 255.598 640.918ZM265.817 640.918C268.377 640.918 270.417 642.938 270.417 646.298C270.417 649.658 268.377 651.678 265.817 651.678C264.177 651.678 263.217 650.918 262.617 650.138H262.577V651.398H260.977V637.098H262.577V642.518H262.617C263.217 641.638 264.177 640.918 265.817 640.918ZM265.657 650.278C267.757 650.278 268.817 648.298 268.817 646.298C268.817 644.298 267.757 642.318 265.657 642.318C263.757 642.318 262.577 643.898 262.577 646.298C262.577 648.698 263.757 650.278 265.657 650.278ZM276.551 650.278C278.591 650.278 279.351 648.958 279.531 648.258H281.131C280.611 650.158 279.151 651.678 276.611 651.678C273.511 651.678 271.631 649.498 271.631 646.298C271.631 642.898 273.551 640.918 276.531 640.918C279.731 640.918 281.291 643.098 281.291 646.718H273.231C273.231 648.558 274.331 650.278 276.551 650.278ZM276.531 642.318C274.611 642.318 273.231 643.678 273.231 645.318H279.691C279.691 643.678 278.451 642.318 276.531 642.318ZM287.515 640.918C287.895 640.918 288.175 640.938 288.455 640.978V642.578H288.415C286.195 642.218 284.655 643.778 284.655 645.958V651.398H283.055V641.198H284.655V643.218H284.695C285.235 641.878 286.055 640.918 287.515 640.918Z" fill="#141720"/>
<path d="M306.888 651.398V637.098H312.068C316.008 637.098 318.428 639.658 318.428 644.258C318.428 648.858 316.008 651.398 312.068 651.398H306.888ZM308.688 638.698V649.798H312.068C315.708 649.798 316.628 647.058 316.628 644.258C316.628 641.458 315.708 638.698 312.068 638.698H308.688ZM324.84 650.278C326.88 650.278 327.64 648.958 327.82 648.258H329.42C328.9 650.158 327.44 651.678 324.9 651.678C321.8 651.678 319.92 649.498 319.92 646.298C319.92 642.898 321.84 640.918 324.82 640.918C328.02 640.918 329.58 643.098 329.58 646.718H321.52C321.52 648.558 322.62 650.278 324.84 650.278ZM324.82 642.318C322.9 642.318 321.52 643.678 321.52 645.318H327.98C327.98 643.678 326.74 642.318 324.82 642.318ZM338.584 644.878C338.504 643.758 337.744 642.318 335.704 642.318C333.284 642.318 332.364 644.378 332.364 646.298C332.364 648.218 333.284 650.278 335.704 650.278C337.764 650.278 338.504 648.858 338.584 647.638H340.184C340.044 649.958 338.224 651.678 335.704 651.678C332.724 651.678 330.764 649.498 330.764 646.298C330.764 643.098 332.724 640.918 335.704 640.918C338.224 640.918 339.944 642.598 340.184 644.878H338.584ZM346.235 650.278C348.275 650.278 349.035 648.958 349.215 648.258H350.815C350.295 650.158 348.835 651.678 346.295 651.678C343.195 651.678 341.315 649.498 341.315 646.298C341.315 642.898 343.235 640.918 346.215 640.918C349.415 640.918 350.975 643.098 350.975 646.718H342.915C342.915 648.558 344.015 650.278 346.235 650.278ZM346.215 642.318C344.295 642.318 342.915 643.678 342.915 645.318H349.375C349.375 643.678 348.135 642.318 346.215 642.318ZM363.398 640.918C365.458 640.918 366.458 642.138 366.458 644.278V651.398H364.858V644.678C364.858 643.358 364.598 642.318 362.998 642.318C361.398 642.318 360.398 643.458 360.398 645.038V651.398H358.798V644.678C358.798 643.358 358.538 642.318 356.938 642.318C355.338 642.318 354.338 643.458 354.338 645.038V651.398H352.738V641.198H354.338V642.418H354.378C354.918 641.698 355.798 640.918 357.338 640.918C358.798 640.918 359.638 641.538 360.058 642.678H360.098C360.798 641.718 361.858 640.918 363.398 640.918ZM373.618 640.918C376.178 640.918 378.218 642.938 378.218 646.298C378.218 649.658 376.178 651.678 373.618 651.678C371.978 651.678 371.018 650.918 370.418 650.138H370.378V651.398H368.778V637.098H370.378V642.518H370.418C371.018 641.638 371.978 640.918 373.618 640.918ZM373.458 650.278C375.558 650.278 376.618 648.298 376.618 646.298C376.618 644.298 375.558 642.318 373.458 642.318C371.558 642.318 370.378 643.898 370.378 646.298C370.378 648.698 371.558 650.278 373.458 650.278ZM384.352 650.278C386.392 650.278 387.152 648.958 387.332 648.258H388.932C388.412 650.158 386.952 651.678 384.412 651.678C381.312 651.678 379.432 649.498 379.432 646.298C379.432 642.898 381.352 640.918 384.332 640.918C387.532 640.918 389.092 643.098 389.092 646.718H381.032C381.032 648.558 382.132 650.278 384.352 650.278ZM384.332 642.318C382.412 642.318 381.032 643.678 381.032 645.318H387.492C387.492 643.678 386.252 642.318 384.332 642.318ZM395.316 640.918C395.696 640.918 395.976 640.938 396.256 640.978V642.578H396.216C393.996 642.218 392.456 643.778 392.456 645.958V651.398H390.856V641.198H392.456V643.218H392.496C393.036 641.878 393.856 640.918 395.316 640.918Z" fill="#141720"/>
<path d="M421.328 647.038C421.328 649.358 420.368 651.678 417.148 651.678C413.928 651.678 412.988 649.358 412.988 647.038V646.638H414.788V647.038C414.788 648.758 415.068 650.078 417.148 650.078C419.228 650.078 419.528 648.758 419.528 647.038V637.098H421.328V647.038ZM430.01 643.798C430.01 642.998 429.57 642.318 427.93 642.318C425.99 642.318 425.35 642.878 425.25 644.358H423.65C423.75 642.398 424.97 640.918 427.93 640.918C429.87 640.918 431.61 641.678 431.61 644.138V649.098C431.61 649.898 431.75 650.338 432.77 650.218V651.338C432.35 651.478 432.13 651.498 431.83 651.498C430.87 651.498 430.29 651.238 430.01 650.118H429.97C429.33 651.078 428.19 651.678 426.51 651.678C424.45 651.678 423.15 650.498 423.15 648.778C423.15 646.458 424.87 645.858 427.51 645.358C429.23 645.038 430.01 644.818 430.01 643.798ZM426.67 650.278C428.57 650.278 430.01 649.418 430.01 647.458V645.758C429.71 646.058 428.73 646.338 427.65 646.558C425.67 646.978 424.75 647.478 424.75 648.698C424.75 649.698 425.35 650.278 426.67 650.278ZM439.145 640.918C441.005 640.918 442.565 641.938 442.565 644.278V651.398H440.965V644.678C440.965 643.358 440.345 642.318 438.745 642.318C436.945 642.318 435.745 643.458 435.745 645.038V651.398H434.145V641.198H435.745V642.418H435.785C436.325 641.698 437.405 640.918 439.145 640.918ZM451.651 641.198H453.251V651.398H451.651V650.178H451.611C451.071 650.898 449.991 651.678 448.251 651.678C446.391 651.678 444.831 650.658 444.831 648.318V641.198H446.431V647.918C446.431 649.238 447.051 650.278 448.651 650.278C450.451 650.278 451.651 649.138 451.651 647.558V641.198ZM461.877 643.798C461.877 642.998 461.437 642.318 459.797 642.318C457.857 642.318 457.217 642.878 457.117 644.358H455.517C455.617 642.398 456.837 640.918 459.797 640.918C461.737 640.918 463.477 641.678 463.477 644.138V649.098C463.477 649.898 463.617 650.338 464.637 650.218V651.338C464.217 651.478 463.997 651.498 463.697 651.498C462.737 651.498 462.157 651.238 461.877 650.118H461.837C461.197 651.078 460.057 651.678 458.377 651.678C456.317 651.678 455.017 650.498 455.017 648.778C455.017 646.458 456.737 645.858 459.377 645.358C461.097 645.038 461.877 644.818 461.877 643.798ZM458.537 650.278C460.437 650.278 461.877 649.418 461.877 647.458V645.758C461.577 646.058 460.597 646.338 459.517 646.558C457.537 646.978 456.617 647.478 456.617 648.698C456.617 649.698 457.217 650.278 458.537 650.278ZM470.472 640.918C470.852 640.918 471.132 640.938 471.412 640.978V642.578H471.372C469.152 642.218 467.612 643.778 467.612 645.958V651.398H466.012V641.198H467.612V643.218H467.652C468.192 641.878 469.012 640.918 470.472 640.918ZM481.687 641.198L477.327 652.238C476.887 653.338 476.367 654.838 474.487 654.838C473.847 654.838 473.387 654.718 473.127 654.638V653.438H473.367C474.247 653.518 474.867 653.458 475.407 652.878C475.827 652.418 476.247 651.558 475.847 650.558L471.987 641.198H473.787L476.907 649.518H476.947L479.887 641.198H481.687Z" fill="#141720"/>
<path d="M503.688 643.338H510.068V644.938H503.688V651.398H501.888V637.098H511.588V638.698H503.688V643.338ZM516.832 650.278C518.872 650.278 519.632 648.958 519.812 648.258H521.412C520.892 650.158 519.432 651.678 516.892 651.678C513.792 651.678 511.912 649.498 511.912 646.298C511.912 642.898 513.832 640.918 516.812 640.918C520.012 640.918 521.572 643.098 521.572 646.718H513.512C513.512 648.558 514.612 650.278 516.832 650.278ZM516.812 642.318C514.892 642.318 513.512 643.678 513.512 645.318H519.972C519.972 643.678 518.732 642.318 516.812 642.318ZM528.176 640.918C530.736 640.918 532.776 642.938 532.776 646.298C532.776 649.658 530.736 651.678 528.176 651.678C526.536 651.678 525.576 650.918 524.976 650.138H524.936V651.398H523.336V637.098H524.936V642.518H524.976C525.576 641.638 526.536 640.918 528.176 640.918ZM528.016 650.278C530.116 650.278 531.176 648.298 531.176 646.298C531.176 644.298 530.116 642.318 528.016 642.318C526.116 642.318 524.936 643.898 524.936 646.298C524.936 648.698 526.116 650.278 528.016 650.278ZM539.03 640.918C539.41 640.918 539.69 640.938 539.97 640.978V642.578H539.93C537.71 642.218 536.17 643.778 536.17 645.958V651.398H534.57V641.198H536.17V643.218H536.21C536.75 641.878 537.57 640.918 539.03 640.918ZM548.366 641.198H549.966V651.398H548.366V650.178H548.326C547.786 650.898 546.706 651.678 544.966 651.678C543.106 651.678 541.546 650.658 541.546 648.318V641.198H543.146V647.918C543.146 649.238 543.766 650.278 545.366 650.278C547.166 650.278 548.366 649.138 548.366 647.558V641.198ZM558.592 643.798C558.592 642.998 558.152 642.318 556.512 642.318C554.572 642.318 553.932 642.878 553.832 644.358H552.232C552.332 642.398 553.552 640.918 556.512 640.918C558.452 640.918 560.192 641.678 560.192 644.138V649.098C560.192 649.898 560.332 650.338 561.352 650.218V651.338C560.932 651.478 560.712 651.498 560.412 651.498C559.452 651.498 558.872 651.238 558.592 650.118H558.552C557.912 651.078 556.772 651.678 555.092 651.678C553.032 651.678 551.732 650.498 551.732 648.778C551.732 646.458 553.452 645.858 556.092 645.358C557.812 645.038 558.592 644.818 558.592 643.798ZM555.252 650.278C557.152 650.278 558.592 649.418 558.592 647.458V645.758C558.292 646.058 557.312 646.338 556.232 646.558C554.252 646.978 553.332 647.478 553.332 648.698C553.332 649.698 553.932 650.278 555.252 650.278ZM567.187 640.918C567.567 640.918 567.847 640.938 568.127 640.978V642.578H568.087C565.867 642.218 564.327 643.778 564.327 645.958V651.398H562.727V641.198H564.327V643.218H564.367C564.907 641.878 565.727 640.918 567.187 640.918ZM578.402 641.198L574.042 652.238C573.602 653.338 573.082 654.838 571.202 654.838C570.562 654.838 570.102 654.718 569.842 654.638V653.438H570.082C570.962 653.518 571.582 653.458 572.122 652.878C572.542 652.418 572.962 651.558 572.562 650.558L568.702 641.198H570.502L573.622 649.518H573.662L576.602 641.198H578.402Z" fill="#141720"/>
<path d="M599.888 651.398V637.098H602.348L606.828 648.978H606.868L611.348 637.098H613.808V651.398H612.008V639.638H611.968L607.648 651.398H606.048L601.728 639.638H601.688V651.398H599.888ZM622.67 643.798C622.67 642.998 622.23 642.318 620.59 642.318C618.65 642.318 618.01 642.878 617.91 644.358H616.31C616.41 642.398 617.63 640.918 620.59 640.918C622.53 640.918 624.27 641.678 624.27 644.138V649.098C624.27 649.898 624.41 650.338 625.43 650.218V651.338C625.01 651.478 624.79 651.498 624.49 651.498C623.53 651.498 622.95 651.238 622.67 650.118H622.63C621.99 651.078 620.85 651.678 619.17 651.678C617.11 651.678 615.81 650.498 615.81 648.778C615.81 646.458 617.53 645.858 620.17 645.358C621.89 645.038 622.67 644.818 622.67 643.798ZM619.33 650.278C621.23 650.278 622.67 649.418 622.67 647.458V645.758C622.37 646.058 621.39 646.338 620.31 646.558C618.33 646.978 617.41 647.478 617.41 648.698C617.41 649.698 618.01 650.278 619.33 650.278ZM631.265 640.918C631.645 640.918 631.925 640.938 632.205 640.978V642.578H632.165C629.945 642.218 628.405 643.778 628.405 645.958V651.398H626.805V641.198H628.405V643.218H628.445C628.985 641.878 629.805 640.918 631.265 640.918ZM640.689 644.878C640.609 643.758 639.849 642.318 637.809 642.318C635.389 642.318 634.469 644.378 634.469 646.298C634.469 648.218 635.389 650.278 637.809 650.278C639.869 650.278 640.609 648.858 640.689 647.638H642.289C642.149 649.958 640.329 651.678 637.809 651.678C634.829 651.678 632.869 649.498 632.869 646.298C632.869 643.098 634.829 640.918 637.809 640.918C640.329 640.918 642.049 642.598 642.289 644.878H640.689ZM649 640.918C650.86 640.918 652.42 641.938 652.42 644.278V651.398H650.82V644.678C650.82 643.358 650.2 642.318 648.6 642.318C646.8 642.318 645.6 643.458 645.6 645.038V651.398H644V637.098H645.6V642.418H645.64C646.18 641.698 647.26 640.918 649 640.918Z" fill="#141720"/>
<path d="M678.168 647.818H671.868L670.608 651.398H668.748L674.028 637.098H676.028L681.288 651.398H679.428L678.168 647.818ZM672.468 646.218H677.588L675.048 638.758H675.008L672.468 646.218ZM687.657 640.918C690.177 640.918 692.217 642.938 692.217 646.298C692.217 649.658 690.177 651.678 687.657 651.678C685.977 651.678 685.017 650.958 684.417 650.078H684.377V654.838H682.777V641.198H684.377V642.458H684.417C685.017 641.678 685.977 640.918 687.657 640.918ZM687.457 650.278C689.557 650.278 690.617 648.298 690.617 646.298C690.617 644.298 689.557 642.318 687.457 642.318C685.557 642.318 684.377 643.898 684.377 646.298C684.377 648.698 685.557 650.278 687.457 650.278ZM698.53 640.918C698.91 640.918 699.19 640.938 699.47 640.978V642.578H699.43C697.21 642.218 695.67 643.778 695.67 645.958V651.398H694.07V641.198H695.67V643.218H695.71C696.25 641.878 697.07 640.918 698.53 640.918ZM702.106 639.218C701.666 639.218 701.106 638.878 701.106 638.258C701.106 637.638 701.666 637.298 702.106 637.298C702.566 637.298 703.106 637.638 703.106 638.258C703.106 638.878 702.566 639.218 702.106 639.218ZM701.306 641.198H702.906V651.398H701.306V641.198ZM705.349 637.098H706.949V651.398H705.349V637.098Z" fill="#141720"/>
<path d="M726.888 651.398V637.098H729.348L733.828 648.978H733.868L738.348 637.098H740.808V651.398H739.008V639.638H738.968L734.648 651.398H733.048L728.728 639.638H728.688V651.398H726.888ZM749.67 643.798C749.67 642.998 749.23 642.318 747.59 642.318C745.65 642.318 745.01 642.878 744.91 644.358H743.31C743.41 642.398 744.63 640.918 747.59 640.918C749.53 640.918 751.27 641.678 751.27 644.138V649.098C751.27 649.898 751.41 650.338 752.43 650.218V651.338C752.01 651.478 751.79 651.498 751.49 651.498C750.53 651.498 749.95 651.238 749.67 650.118H749.63C748.99 651.078 747.85 651.678 746.17 651.678C744.11 651.678 742.81 650.498 742.81 648.778C742.81 646.458 744.53 645.858 747.17 645.358C748.89 645.038 749.67 644.818 749.67 643.798ZM746.33 650.278C748.23 650.278 749.67 649.418 749.67 647.458V645.758C749.37 646.058 748.39 646.338 747.31 646.558C745.33 646.978 744.41 647.478 744.41 648.698C744.41 649.698 745.01 650.278 746.33 650.278ZM762.249 641.198L757.889 652.238C757.449 653.338 756.929 654.838 755.049 654.838C754.409 654.838 753.949 654.718 753.689 654.638V653.438H753.929C754.809 653.518 755.429 653.458 755.969 652.878C756.389 652.418 756.809 651.558 756.409 650.558L752.549 641.198H754.349L757.469 649.518H757.509L760.449 641.198H762.249Z" fill="#141720"/>
</svg>
