<svg width="638" height="725" viewBox="0 0 638 725" fill="none" xmlns="http://www.w3.org/2000/svg">
<g clip-path="url(#clip0_3119_1985)">
<path d="M637.777 0H0V112.613H637.777V0Z" fill="#141720"/>
<path d="M30.7139 73.9189V73.4189H30.2715L30.2176 73.8581L30.7139 73.9189ZM39.5029 73.9189L39.9992 73.9798L40.068 73.4189H39.5029V73.9189ZM38.4248 82.708V83.208H38.8672L38.9211 82.7689L38.4248 82.708ZM35.4951 82.708V82.208H34.3919L35.1191 83.0376L35.4951 82.708ZM37.0361 84.4658V84.9658H38.1394L37.4121 84.1362L37.0361 84.4658ZM34.5518 84.4658L34.1758 84.7954L34.3252 84.9658H34.5518V84.4658ZM33.0107 82.708L33.3867 82.3784L33.2373 82.208H33.0107V82.708ZM29.6357 82.708L29.1395 82.6471L29.0707 83.208H29.6357V82.708ZM32.2549 75.6768V75.1768H31.8123L31.7586 75.6161L32.2549 75.6768ZM31.6104 80.9502L31.114 80.8895L31.0455 81.4502H31.6104V80.9502ZM36.8838 80.9502V81.4502H37.3264L37.3801 81.0109L36.8838 80.9502ZM37.5283 75.6768L38.0246 75.7374L38.0932 75.1768H37.5283V75.6768ZM30.7139 74.4189H39.5029V73.4189H30.7139V74.4189ZM39.0066 73.8581L37.9285 82.6471L38.9211 82.7689L39.9992 73.9798L39.0066 73.8581ZM38.4248 82.208H35.4951V83.208H38.4248V82.208ZM35.1191 83.0376L36.6602 84.7954L37.4121 84.1362L35.8711 82.3784L35.1191 83.0376ZM37.0361 83.9658H34.5518V84.9658H37.0361V83.9658ZM34.9277 84.1362L33.3867 82.3784L32.6348 83.0376L34.1758 84.7954L34.9277 84.1362ZM33.0107 82.208H29.6357V83.208H33.0107V82.208ZM30.132 82.7689L31.2101 73.9798L30.2176 73.8581L29.1395 82.6471L30.132 82.7689ZM31.7586 75.6161L31.114 80.8895L32.1067 81.0109L32.7512 75.7374L31.7586 75.6161ZM31.6104 81.4502H36.8838V80.4502H31.6104V81.4502ZM37.3801 81.0109L38.0246 75.7374L37.032 75.6161L36.3875 80.8895L37.3801 81.0109ZM37.5283 75.1768H32.2549V76.1768H37.5283V75.1768ZM40.6748 73.9189V73.4189H40.2324L40.1785 73.8581L40.6748 73.9189ZM42.4326 73.9189L42.9289 73.9797L42.9976 73.4189H42.4326V73.9189ZM41.5713 80.9502L41.075 80.8894L41.0063 81.4502H41.5713V80.9502ZM46.8447 80.9502V81.4502H47.2872L47.341 81.011L46.8447 80.9502ZM47.7061 73.9189V73.4189H47.2636L47.2098 73.8581L47.7061 73.9189ZM49.4639 73.9189L49.9601 73.9798L50.0289 73.4189H49.4639V73.9189ZM48.3857 82.708V83.208H48.8282L48.882 82.7689L48.3857 82.708ZM39.5967 82.708L39.1004 82.6471L39.0316 83.208H39.5967V82.708ZM40.6748 74.4189H42.4326V73.4189H40.6748V74.4189ZM41.9363 73.8581L41.075 80.8894L42.0676 81.011L42.9289 73.9797L41.9363 73.8581ZM41.5713 81.4502H46.8447V80.4502H41.5713V81.4502ZM47.341 81.011L48.2023 73.9797L47.2098 73.8581L46.3484 80.8894L47.341 81.011ZM47.7061 74.4189H49.4639V73.4189H47.7061V74.4189ZM48.9676 73.8581L47.8895 82.6471L48.882 82.7689L49.9601 73.9798L48.9676 73.8581ZM48.3857 82.208H39.5967V83.208H48.3857V82.208ZM40.093 82.7689L41.1711 73.9798L40.1785 73.8581L39.1004 82.6471L40.093 82.7689ZM51.3154 82.708V83.208H51.7578L51.8117 82.7689L51.3154 82.708ZM49.5576 82.708L49.0613 82.6471L48.9925 83.208H49.5576V82.708ZM50.6357 73.9189V73.4189H50.1933L50.1395 73.8581L50.6357 73.9189ZM52.3936 73.9189L52.8898 73.9798L52.9586 73.4189H52.3936V73.9189ZM51.3154 82.208H49.5576V83.208H51.3154V82.208ZM50.0539 82.7689L51.132 73.9798L50.1395 73.8581L49.0613 82.6471L50.0539 82.7689ZM50.6357 74.4189H52.3936V73.4189H50.6357V74.4189ZM51.8973 73.8581L50.8191 82.6471L51.8117 82.7689L52.8898 73.9798L51.8973 73.8581ZM59.1377 75.6768L59.4703 76.0501L60.4506 75.1768H59.1377V75.6768ZM53.3486 75.6768L52.8524 75.6156L52.7832 76.1768H53.3486V75.6768ZM53.5654 73.9189V73.4189H53.1233L53.0692 73.8577L53.5654 73.9189ZM63.5967 73.9189L63.9293 74.2923L64.9096 73.4189H63.5967V73.9189ZM55.7041 80.9502L55.3715 80.5769L54.3912 81.4502H55.7041V80.9502ZM61.4932 80.9502L61.9894 81.0114L62.0586 80.4502H61.4932V80.9502ZM61.2764 82.708V83.208H61.7185L61.7726 82.7692L61.2764 82.708ZM51.2451 82.708L50.9125 82.3347L49.9322 83.208H51.2451V82.708ZM59.1377 75.1768H53.3486V76.1768H59.1377V75.1768ZM53.8449 75.738L54.0617 73.9801L53.0692 73.8577L52.8524 75.6156L53.8449 75.738ZM53.5654 74.4189H63.5967V73.4189H53.5654V74.4189ZM63.2641 73.5456L55.3715 80.5769L56.0367 81.3235L63.9293 74.2923L63.2641 73.5456ZM55.7041 81.4502H61.4932V80.4502H55.7041V81.4502ZM60.9969 80.889L60.7801 82.6468L61.7726 82.7692L61.9894 81.0114L60.9969 80.889ZM61.2764 82.208H51.2451V83.208H61.2764V82.208ZM51.5777 83.0813L59.4703 76.0501L58.8051 75.3034L50.9125 82.3347L51.5777 83.0813ZM70.9268 75.6768V75.1768H70.4843L70.4305 75.616L70.9268 75.6768ZM70.0654 82.708V83.208H70.5079L70.5617 82.7688L70.0654 82.708ZM68.3076 82.708L67.8113 82.6472L67.7426 83.208H68.3076V82.708ZM69.1689 75.6768L69.6652 75.7376L69.7339 75.1768H69.1689V75.6768ZM65.6533 75.6768L65.1571 75.6156L65.0879 76.1768H65.6533V75.6768ZM65.8701 73.9189V73.4189H65.428L65.3739 73.8577L65.8701 73.9189ZM74.6592 73.9189L75.1554 73.9801L75.2246 73.4189H74.6592V73.9189ZM74.4424 75.6768V76.1768H74.8845L74.9386 75.738L74.4424 75.6768ZM70.4305 75.616L69.5691 82.6472L70.5617 82.7688L71.423 75.7376L70.4305 75.616ZM70.0654 82.208H68.3076V83.208H70.0654V82.208ZM68.8039 82.7688L69.6652 75.7376L68.6727 75.616L67.8113 82.6472L68.8039 82.7688ZM69.1689 75.1768H65.6533V76.1768H69.1689V75.1768ZM66.1496 75.738L66.3664 73.9801L65.3739 73.8577L65.1571 75.6156L66.1496 75.738ZM65.8701 74.4189H74.6592V73.4189H65.8701V74.4189ZM74.1629 73.8577L73.9461 75.6156L74.9386 75.738L75.1554 73.9801L74.1629 73.8577ZM74.4424 75.1768H70.9268V76.1768H74.4424V75.1768ZM76.5107 82.708V83.208H76.9532L77.007 82.7689L76.5107 82.708ZM74.7529 82.708L74.2566 82.6471L74.1878 83.208H74.7529V82.708ZM75.8311 73.9189V73.4189H75.3886L75.3348 73.8581L75.8311 73.9189ZM77.5889 73.9189L78.0851 73.9798L78.1539 73.4189H77.5889V73.9189ZM76.5107 82.208H74.7529V83.208H76.5107V82.208ZM75.2492 82.7689L76.3273 73.9798L75.3348 73.8581L74.2566 82.6471L75.2492 82.7689ZM75.8311 74.4189H77.5889V73.4189H75.8311V74.4189ZM77.0926 73.8581L76.0145 82.6471L77.007 82.7689L78.0851 73.9798L77.0926 73.8581ZM80.3018 75.6768V75.1768H79.8593L79.8055 75.616L80.3018 75.6768ZM79.4404 82.708V83.208H79.8829L79.9367 82.7688L79.4404 82.708ZM77.6826 82.708L77.1863 82.6471L77.1175 83.208H77.6826V82.708ZM78.7607 73.9189V73.4189H78.3183L78.2645 73.8581L78.7607 73.9189ZM87.5498 73.9189L88.0461 73.9798L88.1149 73.4189H87.5498V73.9189ZM86.4717 82.708V83.208H86.9141L86.968 82.7689L86.4717 82.708ZM84.7139 82.708L84.2176 82.6472L84.1489 83.208H84.7139V82.708ZM85.5752 75.6768L86.0715 75.7376L86.1402 75.1768H85.5752V75.6768ZM83.8174 75.6768V75.1768H83.3749L83.3211 75.616L83.8174 75.6768ZM82.9561 82.708V83.208H83.3985L83.4523 82.7688L82.9561 82.708ZM81.1982 82.708L80.702 82.6472L80.6333 83.208H81.1982V82.708ZM82.0596 75.6768L82.5559 75.7376L82.6246 75.1768H82.0596V75.6768ZM79.8055 75.616L78.9441 82.6472L79.9367 82.7688L80.798 75.7376L79.8055 75.616ZM79.4404 82.208H77.6826V83.208H79.4404V82.208ZM78.1789 82.7689L79.257 73.9798L78.2645 73.8581L77.1863 82.6471L78.1789 82.7689ZM78.7607 74.4189H87.5498V73.4189H78.7607V74.4189ZM87.0535 73.8581L85.9754 82.6471L86.968 82.7689L88.0461 73.9798L87.0535 73.8581ZM86.4717 82.208H84.7139V83.208H86.4717V82.208ZM85.2102 82.7688L86.0715 75.7376L85.0789 75.616L84.2176 82.6472L85.2102 82.7688ZM85.5752 75.1768H83.8174V76.1768H85.5752V75.1768ZM83.3211 75.616L82.4598 82.6472L83.4523 82.7688L84.3137 75.7376L83.3211 75.616ZM82.9561 82.208H81.1982V83.208H82.9561V82.208ZM81.6945 82.7688L82.5559 75.7376L81.5633 75.616L80.702 82.6472L81.6945 82.7688ZM82.0596 75.1768H80.3018V76.1768H82.0596V75.1768ZM89.6182 80.9502L89.1219 80.889L89.0527 81.4502H89.6182V80.9502ZM96.6494 80.9502L97.1457 81.0114L97.2149 80.4502H96.6494V80.9502ZM96.4326 82.708V83.208H96.8747L96.9289 82.7692L96.4326 82.708ZM87.6436 82.708L87.1473 82.6471L87.0785 83.208H87.6436V82.708ZM88.7217 73.9189V73.4189H88.2793L88.2254 73.8581L88.7217 73.9189ZM97.5107 73.9189L98.007 73.9801L98.0762 73.4189H97.5107V73.9189ZM97.2939 75.6768V76.1768H97.7361L97.7902 75.738L97.2939 75.6768ZM90.2627 75.6768V75.1768H89.8191L89.7663 75.6172L90.2627 75.6768ZM90.0518 77.4346L89.5553 77.375L89.4882 77.9346H90.0518V77.4346ZM97.083 77.4346L97.5792 77.4958L97.6485 76.9346H97.083V77.4346ZM96.8662 79.1924V79.6924H97.3083L97.3624 79.2536L96.8662 79.1924ZM89.835 79.1924V78.6924H89.3928L89.3387 79.1312L89.835 79.1924ZM89.6182 81.4502H96.6494V80.4502H89.6182V81.4502ZM96.1532 80.889L95.9364 82.6468L96.9289 82.7692L97.1457 81.0114L96.1532 80.889ZM96.4326 82.208H87.6436V83.208H96.4326V82.208ZM88.1398 82.7689L89.218 73.9798L88.2254 73.8581L87.1473 82.6471L88.1398 82.7689ZM88.7217 74.4189H97.5107V73.4189H88.7217V74.4189ZM97.0145 73.8577L96.7977 75.6156L97.7902 75.738L98.007 73.9801L97.0145 73.8577ZM97.2939 75.1768H90.2627V76.1768H97.2939V75.1768ZM89.7663 75.6172L89.5553 77.375L90.5482 77.4941L90.7591 75.7363L89.7663 75.6172ZM90.0518 77.9346H97.083V76.9346H90.0518V77.9346ZM96.5868 77.3734L96.37 79.1312L97.3624 79.2536L97.5792 77.4958L96.5868 77.3734ZM96.8662 78.6924H89.835V79.6924H96.8662V78.6924ZM89.3387 79.1312L89.1219 80.889L90.1144 81.0114L90.3312 79.2536L89.3387 79.1312Z" fill="#2300F7"/>
<path d="M637.777 1.53711H0V114.15H637.777V1.53711Z" fill="#141720"/>
<path d="M55.8689 34.4252L50.4747 70.1902H94.5918L99.9861 34.4252H55.8689ZM42.9816 22.5062H116.503L107.489 82.1091H82.9821L95.8694 94.0281H75.0834L62.196 82.1091H33.9675L42.9816 22.5062Z" stroke="#2300F7" stroke-miterlimit="10"/>
<path d="M126.298 22.5062H141.001L133.801 70.1902H177.908L185.118 22.5062H199.82L190.806 82.1091H117.284L126.298 22.5062Z" stroke="#2300F7" stroke-miterlimit="10"/>
<path d="M215.313 82.1091H200.601L209.625 22.5062H224.327L215.313 82.1091Z" stroke="#2300F7" stroke-miterlimit="10"/>
<path d="M280.744 34.4252H232.317L234.132 22.5062H318.047L252.018 70.1902H300.445L298.63 82.1091H214.715L280.744 34.4252Z" stroke="#2300F7" stroke-miterlimit="10"/>
<path d="M379.361 34.4252L372.152 82.1091H357.449L364.658 34.4252H335.244L337.059 22.5062H410.58L408.765 34.4252H379.361Z" stroke="#2300F7" stroke-miterlimit="10"/>
<path d="M426.074 82.1091H411.361L420.386 22.5062H435.088L426.074 82.1091Z" stroke="#2300F7" stroke-miterlimit="10"/>
<path d="M457.78 34.4252L450.581 82.1091H435.868L444.892 22.5062H518.414L509.39 82.1091H494.688L501.897 34.4252H487.195L479.985 82.1091H465.283L472.482 34.4252H457.78Z" stroke="#2300F7" stroke-miterlimit="10"/>
<path d="M535.713 70.1902H594.532L592.717 82.1091H519.195L528.22 22.5062H601.741L599.926 34.4252H541.107L539.343 46.3523H598.162L596.347 58.2712H537.528L535.713 70.1902Z" stroke="#2300F7" stroke-miterlimit="10"/>
<path d="M637.787 6.1239H0.0100098V118.737H637.787V6.1239Z" fill="#141720"/>
<path d="M55.8689 39.012L50.4747 74.777H94.5918L99.9861 39.012H55.8689ZM42.9816 27.093H116.503L107.489 86.6959H82.9821L95.8694 98.6148H75.0834L62.196 86.6959H33.9675L42.9816 27.093Z" stroke="#2300F7" stroke-miterlimit="10"/>
<path d="M126.308 27.093H141.011L133.812 74.777H177.919L185.128 27.093H199.83L190.806 86.6959H117.284L126.308 27.093Z" stroke="#2300F7" stroke-miterlimit="10"/>
<path d="M215.313 86.6959H200.611L209.635 27.093H224.337L215.313 86.6959Z" stroke="#2300F7" stroke-miterlimit="10"/>
<path d="M280.754 39.012H232.327L234.142 27.093H318.047L252.028 74.777H300.455L298.64 86.6959H214.725L280.754 39.012Z" stroke="#2300F7" stroke-miterlimit="10"/>
<path d="M379.371 39.012L372.162 86.6959H357.459L364.669 39.012H335.254L337.069 27.093H410.591L408.776 39.012H379.371Z" stroke="#2300F7" stroke-miterlimit="10"/>
<path d="M426.084 86.6959H411.371L420.395 27.093H435.098L426.084 86.6959Z" stroke="#2300F7" stroke-miterlimit="10"/>
<path d="M457.79 39.012L450.591 86.6959H435.878L444.903 27.093H518.424L509.4 86.6959H494.698L501.907 39.012H487.195L479.996 86.6959H465.293L472.492 39.012H457.79Z" stroke="#2300F7" stroke-miterlimit="10"/>
<path d="M535.722 74.777H594.542L592.727 86.6959H519.205L528.229 27.093H601.751L599.936 39.012H541.117L539.352 50.9391H598.172L596.357 62.858H537.537L535.722 74.777Z" stroke="#2300F7" stroke-miterlimit="10"/>
<path d="M637.807 13.7109H0.0302734V126.324H637.807V13.7109Z" fill="#141720"/>
<path d="M55.8892 46.599L50.495 82.364H94.6121L100.006 46.599H55.8892ZM43.0018 34.6801H116.524L107.51 94.2829H83.0023L95.8897 106.202H75.1036L62.2163 94.2829H33.9878L43.0018 34.6801Z" stroke="#2300F7" stroke-miterlimit="10"/>
<path d="M126.318 34.6801H141.021L133.822 82.364H177.939L185.138 34.6801H199.84L190.826 94.2829H117.304L126.318 34.6801Z" stroke="#2300F7" stroke-miterlimit="10"/>
<path d="M215.333 94.2829H200.631L209.645 34.6801H224.347L215.333 94.2829Z" stroke="#2300F7" stroke-miterlimit="10"/>
<path d="M280.764 46.599H232.337L234.152 34.6801H318.067L252.049 82.364H300.465L298.66 94.2829H214.745L280.764 46.599Z" stroke="#2300F7" stroke-miterlimit="10"/>
<path d="M379.381 46.599L372.182 94.2829H357.469L364.679 46.599H335.274L337.079 34.6801H410.601L408.786 46.599H379.381Z" stroke="#2300F7" stroke-miterlimit="10"/>
<path d="M426.094 94.2829H411.392L420.406 34.6801H435.108L426.094 94.2829Z" stroke="#2300F7" stroke-miterlimit="10"/>
<path d="M457.8 46.599L450.601 94.2829H435.899L444.913 34.6801H518.435L509.421 94.2829H494.718L501.917 46.599H487.215L480.006 94.2829H465.304L472.513 46.599H457.8Z" stroke="#2300F7" stroke-miterlimit="10"/>
<path d="M535.743 82.364H594.552L592.737 94.2829H519.226L528.24 34.6801H601.761L599.946 46.599H541.127L539.363 58.5261H598.182L596.367 70.4451H537.548L535.743 82.364Z" stroke="#2300F7" stroke-miterlimit="10"/>
<path d="M637.817 24.2571H0.0405273V136.87H637.817V24.2571Z" fill="#141720"/>
<path d="M55.9095 57.1451L50.5152 92.9102H94.6324L100.027 57.1451H55.9095ZM43.0221 45.2262H116.544L107.53 104.829H83.0226L95.9099 116.748H75.1239L62.2365 104.829H34.0081L43.0221 45.2262Z" stroke="#2300F7" stroke-miterlimit="10"/>
<path d="M126.339 45.2262H141.041L133.842 92.9102H177.949L185.158 45.2262H199.861L190.846 104.829H117.325L126.339 45.2262Z" stroke="#2300F7" stroke-miterlimit="10"/>
<path d="M215.354 104.829H200.641L209.665 45.2262H224.368L215.354 104.829Z" stroke="#2300F7" stroke-miterlimit="10"/>
<path d="M280.784 57.1451H232.358L234.173 45.2262H318.088L252.059 92.9102H300.485L298.67 104.829H214.766L280.784 57.1451Z" stroke="#2300F7" stroke-miterlimit="10"/>
<path d="M379.401 57.1451L372.192 104.829H357.49L364.699 57.1451H335.284L337.099 45.2262H410.621L408.806 57.1451H379.401Z" stroke="#2300F7" stroke-miterlimit="10"/>
<path d="M426.114 104.829H411.412L420.426 45.2262H435.128L426.114 104.829Z" stroke="#2300F7" stroke-miterlimit="10"/>
<path d="M457.82 57.1451L450.621 104.829H435.919L444.933 45.2262H518.455L509.431 104.829H494.728L501.937 57.1451H487.235L480.026 104.829H465.324L472.523 57.1451H457.82Z" stroke="#2300F7" stroke-miterlimit="10"/>
<path d="M535.753 92.9102H594.573L592.758 104.829H519.236L528.26 45.2262H601.782L599.967 57.1451H541.147L539.383 69.0723H598.203L596.388 80.9912H537.568L535.753 92.9102Z" stroke="#2300F7" stroke-miterlimit="10"/>
<path d="M637.838 37.7131H0.060791V150.327H637.838V37.7131Z" fill="#141720"/>
<path d="M55.9297 70.6099L50.5355 106.375H94.6526L100.047 70.6099H55.9297ZM43.0424 58.6909H116.564L107.55 118.294H83.0428L95.9302 130.213H75.1441L62.2568 118.294H34.0283L43.0424 58.6909Z" stroke="#2300F7" stroke-miterlimit="10"/>
<path d="M126.359 58.6823H141.061L133.862 106.366H177.969L185.178 58.6823H199.881L190.867 118.285H117.345L126.359 58.6823Z" stroke="#2300F7" stroke-miterlimit="10"/>
<path d="M215.374 118.285H200.662L209.686 58.6823H224.388L215.374 118.285Z" stroke="#2300F7" stroke-miterlimit="10"/>
<path d="M280.804 70.6094H232.378L234.193 58.6823H318.108L252.079 106.366H300.506L298.691 118.285H214.786L280.804 70.6094Z" stroke="#2300F7" stroke-miterlimit="10"/>
<path d="M379.421 70.6094L372.212 118.285H357.51L364.719 70.6094H335.304L337.119 58.6823H410.641L408.826 70.6094H379.421Z" stroke="#2300F7" stroke-miterlimit="10"/>
<path d="M426.134 118.285H411.432L420.446 58.6823H435.149L426.134 118.285Z" stroke="#2300F7" stroke-miterlimit="10"/>
<path d="M457.841 70.6094L450.642 118.285H435.939L444.953 58.6823H518.475L509.461 118.285H494.749L501.958 70.6094H487.256L480.046 118.285H465.344L472.553 70.6094H457.841Z" stroke="#2300F7" stroke-miterlimit="10"/>
<path d="M535.773 106.366H594.593L592.778 118.285H519.256L528.28 58.6823H601.802L599.987 70.6094H541.167L539.403 82.5283H598.223L596.408 94.4473H537.588L535.773 106.366Z" stroke="#2300F7" stroke-miterlimit="10"/>
<path d="M637.868 54.038H0.0910645V166.651H637.868V54.038Z" fill="#141720"/>
<path d="M55.95 86.9344L50.5558 122.699H94.6729L100.067 86.9344H55.95ZM43.0626 75.0155H116.584L107.57 134.618H83.0631L95.9505 146.537H75.1644L62.2771 134.618H34.0486L43.0626 75.0155Z" stroke="#2300F7" stroke-miterlimit="10"/>
<path d="M126.379 75.0071H141.092L133.883 122.691H178L185.199 75.0071H199.901L190.887 134.61H117.365L126.379 75.0071Z" stroke="#2300F7" stroke-miterlimit="10"/>
<path d="M215.394 134.61H200.692L209.706 75.0071H224.408L215.394 134.61Z" stroke="#2300F7" stroke-miterlimit="10"/>
<path d="M280.825 86.9342H232.398L234.213 75.0071H318.128L252.11 122.691H300.536L298.721 134.61H214.806L280.825 86.9342Z" stroke="#2300F7" stroke-miterlimit="10"/>
<path d="M379.442 86.9342L372.243 134.61H357.53L364.74 86.9342H335.335L337.15 75.0071H410.672L408.857 86.9342H379.442Z" stroke="#2300F7" stroke-miterlimit="10"/>
<path d="M426.154 134.61H411.452L420.466 75.0071H435.179L426.154 134.61Z" stroke="#2300F7" stroke-miterlimit="10"/>
<path d="M457.871 86.9342L450.662 134.61H435.959L444.974 75.0071H518.495L509.481 134.61H494.779L501.978 86.9342H487.276L480.066 134.61H465.364L472.573 86.9342H457.871Z" stroke="#2300F7" stroke-miterlimit="10"/>
<path d="M535.803 122.691H594.623L592.808 134.61H519.286L528.3 75.0071H601.822L600.007 86.9342H541.188L539.423 98.8532H598.243L596.428 110.772H537.618L535.803 122.691Z" stroke="#2300F7" stroke-miterlimit="10"/>
<path d="M637.888 73.1904H0.111328V185.804H637.888V73.1904Z" fill="#141720"/>
<path d="M55.9703 106.078L50.576 141.843H94.6931L100.087 106.078H55.9703ZM43.0829 94.1595H116.605L107.591 153.762H83.0834L95.9707 165.681H75.1847L62.2973 153.762H34.0688L43.0829 94.1595Z" stroke="#2300F7" stroke-miterlimit="10"/>
<path d="M126.41 94.1595H141.112L133.903 141.843H178.02L185.229 94.1595H199.931L190.907 153.762H117.385L126.41 94.1595Z" stroke="#2300F7" stroke-miterlimit="10"/>
<path d="M215.414 153.762H200.712L209.736 94.1595H224.439L215.414 153.762Z" stroke="#2300F7" stroke-miterlimit="10"/>
<path d="M280.855 106.078H232.429L234.244 94.1595H318.148L252.13 141.843H300.556L298.741 153.762H214.826L280.855 106.078Z" stroke="#2300F7" stroke-miterlimit="10"/>
<path d="M379.472 106.078L372.263 153.762H357.561L364.76 106.078H335.355L337.17 94.1595H410.692L408.877 106.078H379.472Z" stroke="#2300F7" stroke-miterlimit="10"/>
<path d="M426.175 153.762H411.473L420.497 94.1595H435.199L426.175 153.762Z" stroke="#2300F7" stroke-miterlimit="10"/>
<path d="M457.892 106.078L450.682 153.762H435.98L445.004 94.1595H518.526L509.502 153.762H494.799L502.009 106.078H487.296L480.097 153.762H465.395L472.594 106.078H457.892Z" stroke="#2300F7" stroke-miterlimit="10"/>
<path d="M535.824 141.843H594.643L592.828 153.762H519.307L528.321 94.1595H601.843L600.038 106.078H541.218L539.454 117.997H598.263L596.458 129.916H537.639L535.824 141.843Z" stroke="#2300F7" stroke-miterlimit="10"/>
<path d="M637.909 95.113H0.131592V207.726H637.909V95.113Z" fill="#141720"/>
<path d="M56.0008 128.001L50.6065 163.766H94.7237L100.118 128.001H56.0008ZM43.1134 116.082H116.635L107.621 175.685H83.1139L96.0012 187.604H75.2152L62.3278 175.685H34.0994L43.1134 116.082Z" stroke="#2300F7" stroke-miterlimit="10"/>
<path d="M126.43 116.082H141.132L133.933 163.766H178.04L185.25 116.082H199.952L190.938 175.685H117.416L126.43 116.082Z" stroke="#2300F7" stroke-miterlimit="10"/>
<path d="M215.445 175.685H200.732L209.757 116.082H224.459L215.445 175.685Z" stroke="#2300F7" stroke-miterlimit="10"/>
<path d="M280.875 128.001H232.449L234.264 116.082H318.179L252.15 163.766H300.577L298.762 175.685H214.857L280.875 128.001Z" stroke="#2300F7" stroke-miterlimit="10"/>
<path d="M379.493 128.001L372.283 175.685H357.581L364.79 128.001H335.375L337.19 116.082H410.712L408.897 128.001H379.493Z" stroke="#2300F7" stroke-miterlimit="10"/>
<path d="M426.205 175.685H411.503L420.517 116.082H435.219L426.205 175.685Z" stroke="#2300F7" stroke-miterlimit="10"/>
<path d="M457.912 128.001L450.713 175.685H436.01L445.024 116.082H518.546L509.532 175.685H494.82L502.029 128.001H487.326L480.117 175.685H465.415L472.624 128.001H457.912Z" stroke="#2300F7" stroke-miterlimit="10"/>
<path d="M535.844 163.766H594.664L592.849 175.685H519.327L528.351 116.082H601.873L600.058 128.001H541.239L539.474 139.92H598.294L596.479 151.847H537.659L535.844 163.766Z" stroke="#2300F7" stroke-miterlimit="10"/>
<path d="M637.939 119.773H0.162354V232.386H637.939V119.773Z" fill="#141720"/>
<path d="M56.021 152.661L50.6268 188.426H94.7439L100.138 152.661H56.021ZM43.1337 140.742H116.655L107.641 200.345H83.1342L96.0215 212.264H75.2355L62.3481 200.345H34.1196L43.1337 140.742Z" stroke="#2300F7" stroke-miterlimit="10"/>
<path d="M126.45 140.742H141.163L133.954 188.418H178.071L185.27 140.742H199.972L190.958 200.345H117.436L126.45 140.742Z" stroke="#2300F7" stroke-miterlimit="10"/>
<path d="M215.465 200.345H200.763L209.777 140.742H224.479L215.465 200.345Z" stroke="#2300F7" stroke-miterlimit="10"/>
<path d="M280.896 152.661H232.469L234.284 140.742H318.199L252.181 188.418H300.607L298.792 200.345H214.877L280.896 152.661Z" stroke="#2300F7" stroke-miterlimit="10"/>
<path d="M379.513 152.661L372.314 200.345H357.601L364.81 152.661H335.406L337.221 140.742H410.743L408.928 152.661H379.513Z" stroke="#2300F7" stroke-miterlimit="10"/>
<path d="M426.226 200.345H411.523L420.538 140.742H435.25L426.226 200.345Z" stroke="#2300F7" stroke-miterlimit="10"/>
<path d="M457.942 152.661L450.733 200.345H436.031L445.045 140.742H518.567L509.553 200.345H494.85L502.049 152.661H487.347L480.138 200.345H465.435L472.645 152.661H457.942Z" stroke="#2300F7" stroke-miterlimit="10"/>
<path d="M535.875 188.418H594.694L592.879 200.345H519.357L528.371 140.742H601.893L600.078 152.661H541.259L539.495 164.58H598.314L596.499 176.499H537.69L535.875 188.418Z" stroke="#2300F7" stroke-miterlimit="10"/>
<path d="M637.96 147.113H0.182617V259.726H637.96V147.113Z" fill="#141720"/>
<path d="M56.0413 180.001L50.6471 215.766H94.7642L100.158 180.001H56.0413ZM43.1539 168.082H116.676L107.662 227.685H83.1544L96.0418 239.603H75.2557L62.3684 227.685H34.1399L43.1539 168.082Z" stroke="#2300F7" stroke-miterlimit="10"/>
<path d="M126.471 168.082H141.183L133.974 215.766H178.091L185.29 168.082H199.992L190.978 227.685H117.457L126.471 168.082Z" stroke="#2300F7" stroke-miterlimit="10"/>
<path d="M215.486 227.685H200.783L209.797 168.082H224.5L215.486 227.685Z" stroke="#2300F7" stroke-miterlimit="10"/>
<path d="M280.916 180.001H232.49L234.305 168.082H318.219L252.201 215.766H300.627L298.812 227.685H214.897L280.916 180.001Z" stroke="#2300F7" stroke-miterlimit="10"/>
<path d="M379.533 180.001L372.334 227.685H357.632L364.831 180.001H335.426L337.241 168.082H410.763L408.948 180.001H379.533Z" stroke="#2300F7" stroke-miterlimit="10"/>
<path d="M426.246 227.685H411.543L420.557 168.082H435.27L426.246 227.685Z" stroke="#2300F7" stroke-miterlimit="10"/>
<path d="M457.962 180.001L450.753 227.685H436.051L445.065 168.082H518.587L509.573 227.685H494.87L502.069 180.001H487.367L480.168 227.685H465.455L472.665 180.001H457.962Z" stroke="#2300F7" stroke-miterlimit="10"/>
<path d="M535.895 215.766H594.714L592.899 227.685H519.377L528.392 168.082H601.913L600.098 180.001H541.279L539.515 191.928H598.334L596.519 203.847H537.71L535.895 215.766Z" stroke="#2300F7" stroke-miterlimit="10"/>
<path d="M637.98 177.099H0.202881V289.712H637.98V177.099Z" fill="#141720"/>
<path d="M56.0616 209.987L50.6673 245.752H94.7845L100.179 209.987H56.0616ZM43.1742 198.068H116.696L107.682 257.671H83.1747L96.062 269.59H75.276L62.3886 257.671H34.1602L43.1742 198.068Z" stroke="#2300F7" stroke-miterlimit="10"/>
<path d="M126.491 198.068H141.193L133.994 245.752H178.101L185.31 198.068H200.013L190.999 257.671H117.477L126.491 198.068Z" stroke="#2300F7" stroke-miterlimit="10"/>
<path d="M215.506 257.671H200.803L209.818 198.068H224.52L215.506 257.671Z" stroke="#2300F7" stroke-miterlimit="10"/>
<path d="M280.936 209.987H232.51L234.325 198.068H318.24L252.211 245.752H300.637L298.833 257.671H214.918L280.936 209.987Z" stroke="#2300F7" stroke-miterlimit="10"/>
<path d="M379.553 209.987L372.354 257.671H357.642L364.851 209.987H335.436L337.251 198.068H410.773L408.958 209.987H379.553Z" stroke="#2300F7" stroke-miterlimit="10"/>
<path d="M426.266 257.671H411.564L420.578 198.068H435.28L426.266 257.671Z" stroke="#2300F7" stroke-miterlimit="10"/>
<path d="M457.973 209.987L450.774 257.671H436.071L445.085 198.068H518.607L509.593 257.671H494.881L502.09 209.987H487.387L480.178 257.671H465.476L472.685 209.987H457.973Z" stroke="#2300F7" stroke-miterlimit="10"/>
<path d="M535.915 245.752H594.724L592.91 257.671H519.388L528.412 198.068H601.934L600.119 209.987H541.299L539.535 221.914H598.354L596.539 233.833H537.72L535.915 245.752Z" stroke="#2300F7" stroke-miterlimit="10"/>
<path d="M637.99 209.683H0.212891V322.296H637.99V209.683Z" fill="#141720"/>
<path d="M56.0716 242.571L50.6773 278.336H94.7945L100.189 242.571H56.0716ZM43.1842 230.652H116.706L107.692 290.255H83.1847L96.072 302.174H75.286L62.3986 290.255H34.1702L43.1842 230.652Z" stroke="#2300F7" stroke-miterlimit="10"/>
<path d="M126.511 230.652H141.213L134.004 278.336H178.121L185.32 230.652H200.033L191.009 290.255H117.487L126.511 230.652Z" stroke="#2300F7" stroke-miterlimit="10"/>
<path d="M215.516 290.255H200.813L209.828 230.652H224.54L215.516 290.255Z" stroke="#2300F7" stroke-miterlimit="10"/>
<path d="M280.946 242.571H232.53L234.335 230.652H318.25L252.231 278.336H300.658L298.843 290.255H214.928L280.946 242.571Z" stroke="#2300F7" stroke-miterlimit="10"/>
<path d="M379.564 242.571L372.364 290.255H357.662L364.861 242.571H335.457L337.272 230.652H410.793L408.978 242.571H379.564Z" stroke="#2300F7" stroke-miterlimit="10"/>
<path d="M426.276 290.255H411.574L420.598 230.652H435.3L426.276 290.255Z" stroke="#2300F7" stroke-miterlimit="10"/>
<path d="M457.993 242.571L450.783 290.255H436.081L445.105 230.652H518.627L509.603 290.255H494.901L502.1 242.571H487.397L480.198 290.255H465.486L472.695 242.571H457.993Z" stroke="#2300F7" stroke-miterlimit="10"/>
<path d="M535.925 278.336H594.744L592.93 290.255H519.408L528.422 230.652H601.944L600.129 242.571H541.319L539.555 254.498H598.364L596.559 266.417H537.74L535.925 278.336Z" stroke="#2300F7" stroke-miterlimit="10"/>
<path d="M638 244.815H0.223145V357.428H638V244.815Z" fill="#141720"/>
<path d="M56.0818 277.711L50.6876 313.476H94.8047L100.199 277.711H56.0818ZM43.1945 265.792H116.716L107.702 325.395H83.195L96.0823 337.314H75.2962L62.4089 325.395H34.1804L43.1945 265.792Z" stroke="#2300F7" stroke-miterlimit="10"/>
<path d="M126.521 265.792H141.224L134.014 313.468H178.132L185.331 265.792H200.043L191.019 325.395H117.497L126.521 265.792Z" stroke="#2300F7" stroke-miterlimit="10"/>
<path d="M215.526 325.395H200.824L209.838 265.792H224.55L215.526 325.395Z" stroke="#2300F7" stroke-miterlimit="10"/>
<path d="M280.957 277.711H232.53L234.345 265.792H318.26L252.241 313.468H300.668L298.853 325.395H214.938L280.957 277.711Z" stroke="#2300F7" stroke-miterlimit="10"/>
<path d="M379.574 277.711L372.375 325.395H357.672L364.871 277.711H335.467L337.282 265.792H410.804L408.989 277.711H379.574Z" stroke="#2300F7" stroke-miterlimit="10"/>
<path d="M426.286 325.395H411.584L420.598 265.792H435.31L426.286 325.395Z" stroke="#2300F7" stroke-miterlimit="10"/>
<path d="M458.003 277.711L450.794 325.395H436.091L445.105 265.792H518.627L509.613 325.395H494.911L502.11 277.711H487.408L480.208 325.395H465.496L472.705 277.711H458.003Z" stroke="#2300F7" stroke-miterlimit="10"/>
<path d="M535.935 313.468H594.755L592.94 325.395H519.418L528.432 265.792H601.954L600.139 277.711H541.329L539.555 289.63H598.375L596.56 301.549H537.75L535.935 313.468Z" stroke="#2300F7" stroke-miterlimit="10"/>
<path d="M638 282.462H0.223145V395.076H638V282.462Z" fill="#141720"/>
<path d="M56.0818 315.35L50.6876 351.115H94.8047L100.199 315.35H56.0818ZM43.1945 303.431H116.716L107.702 363.034H83.195L96.0823 374.953H75.2962L62.4089 363.034H34.1804L43.1945 303.431Z" stroke="#2300F7" stroke-miterlimit="10"/>
<path d="M126.521 303.431H141.224L134.025 351.115H178.132L185.341 303.431H200.043L191.019 363.034H117.497L126.521 303.431Z" stroke="#2300F7" stroke-miterlimit="10"/>
<path d="M215.526 363.034H200.824L209.848 303.431H224.55L215.526 363.034Z" stroke="#2300F7" stroke-miterlimit="10"/>
<path d="M280.967 315.35H232.54L234.355 303.431H318.26L252.241 351.115H300.668L298.853 363.034H214.938L280.967 315.35Z" stroke="#2300F7" stroke-miterlimit="10"/>
<path d="M379.584 315.35L372.375 363.034H357.672L364.882 315.35H335.467L337.282 303.431H410.804L408.989 315.35H379.584Z" stroke="#2300F7" stroke-miterlimit="10"/>
<path d="M426.296 363.034H411.584L420.608 303.431H435.31L426.296 363.034Z" stroke="#2300F7" stroke-miterlimit="10"/>
<path d="M458.003 315.35L450.804 363.034H436.091L445.115 303.431H518.637L509.613 363.034H494.911L502.12 315.35H487.408L480.208 363.034H465.506L472.705 315.35H458.003Z" stroke="#2300F7" stroke-miterlimit="10"/>
<path d="M535.935 351.115H594.755L592.94 363.034H519.418L528.442 303.431H601.964L600.149 315.35H541.329L539.565 327.269H598.385L596.57 339.196H537.75L535.935 351.115Z" stroke="#2300F7" stroke-miterlimit="10"/>
<path d="M638 322.568H0.223145V435.181H638V322.568Z" fill="#141720"/>
<path d="M56.0818 355.456L50.6876 391.221H94.8047L100.199 355.456H56.0818ZM43.1945 343.537H116.716L107.702 403.14H83.195L96.0823 415.058H75.2962L62.4089 403.14H34.1804L43.1945 343.537Z" stroke="#2300F7" stroke-miterlimit="10"/>
<path d="M126.521 343.537H141.224L134.014 391.221H178.132L185.331 343.537H200.043L191.019 403.14H117.497L126.521 343.537Z" stroke="#2300F7" stroke-miterlimit="10"/>
<path d="M215.526 403.14H200.824L209.838 343.537H224.54L215.526 403.14Z" stroke="#2300F7" stroke-miterlimit="10"/>
<path d="M280.957 355.456H232.53L234.345 343.537H318.26L252.241 391.221H300.668L298.853 403.14H214.938L280.957 355.456Z" stroke="#2300F7" stroke-miterlimit="10"/>
<path d="M379.574 355.456L372.375 403.14H357.672L364.871 355.456H335.467L337.282 343.537H410.804L408.989 355.456H379.574Z" stroke="#2300F7" stroke-miterlimit="10"/>
<path d="M426.286 403.14H411.584L420.598 343.537H435.31L426.286 403.14Z" stroke="#2300F7" stroke-miterlimit="10"/>
<path d="M458.003 355.456L450.794 403.14H436.091L445.105 343.537H518.627L509.613 403.14H494.911L502.11 355.456H487.408L480.208 403.14H465.496L472.705 355.456H458.003Z" stroke="#2300F7" stroke-miterlimit="10"/>
<path d="M535.935 391.221H594.755L592.94 403.14H519.418L528.432 343.537H601.954L600.139 355.456H541.319L539.555 367.374H598.375L596.56 379.302H537.75L535.935 391.221Z" stroke="#2300F7" stroke-miterlimit="10"/>
<path d="M637.99 365.089H0.212891V477.703H637.99V365.089Z" fill="#141720"/>
<path d="M56.0716 397.977L50.6773 433.742H94.7945L100.189 397.977H56.0716ZM43.1842 386.058H116.706L107.692 445.661H83.1847L96.072 457.58H75.286L62.3986 445.661H34.1702L43.1842 386.058Z" stroke="#2300F7" stroke-miterlimit="10"/>
<path d="M126.501 386.058H141.213L134.004 433.742H178.121L185.32 386.058H200.023L191.009 445.661H117.487L126.501 386.058Z" stroke="#2300F7" stroke-miterlimit="10"/>
<path d="M215.516 445.661H200.813L209.828 386.058H224.53L215.516 445.661Z" stroke="#2300F7" stroke-miterlimit="10"/>
<path d="M280.946 397.977H232.52L234.335 386.058H318.25L252.231 433.742H300.658L298.843 445.661H214.928L280.946 397.977Z" stroke="#2300F7" stroke-miterlimit="10"/>
<path d="M379.564 397.977L372.364 445.661H357.652L364.861 397.977H335.457L337.272 386.058H410.793L408.978 397.977H379.564Z" stroke="#2300F7" stroke-miterlimit="10"/>
<path d="M426.276 445.661H411.574L420.588 386.058H435.29L426.276 445.661Z" stroke="#2300F7" stroke-miterlimit="10"/>
<path d="M457.993 397.977L450.783 445.661H436.081L445.095 386.058H518.617L509.603 445.661H494.901L502.1 397.977H487.397L480.188 445.661H465.486L472.695 397.977H457.993Z" stroke="#2300F7" stroke-miterlimit="10"/>
<path d="M535.925 433.742H594.734L592.93 445.661H519.408L528.422 386.058H601.944L600.129 397.977H541.309L539.545 409.905H598.364L596.549 421.823H537.74L535.925 433.742Z" stroke="#2300F7" stroke-miterlimit="10"/>
<path d="M637.97 409.987H0.192627V522.6H637.97V409.987Z" fill="#141720"/>
<path d="M56.0513 442.875L50.6571 478.64H94.7742L100.168 442.875H56.0513ZM43.164 430.956H116.686L107.672 490.559H83.1644L96.0518 502.478H75.2657L62.3784 490.559H34.1499L43.164 430.956Z" stroke="#2300F7" stroke-miterlimit="10"/>
<path d="M126.481 430.956H141.193L133.984 478.64H178.101L185.3 430.956H200.002L190.988 490.559H117.467L126.481 430.956Z" stroke="#2300F7" stroke-miterlimit="10"/>
<path d="M215.496 490.559H200.793L209.807 430.956H224.51L215.496 490.559Z" stroke="#2300F7" stroke-miterlimit="10"/>
<path d="M280.926 442.875H232.5L234.315 430.956H318.229L252.211 478.64H300.637L298.822 490.559H214.907L280.926 442.875Z" stroke="#2300F7" stroke-miterlimit="10"/>
<path d="M379.543 442.875L372.344 490.559H357.631L364.841 442.875H335.436L337.251 430.956H410.763L408.958 442.875H379.543Z" stroke="#2300F7" stroke-miterlimit="10"/>
<path d="M426.256 490.559H411.554L420.568 430.956H435.27L426.256 490.559Z" stroke="#2300F7" stroke-miterlimit="10"/>
<path d="M457.973 442.875L450.763 490.559H436.061L445.075 430.956H518.597L509.583 490.559H494.881L502.08 442.875H487.377L480.168 490.559H465.466L472.675 442.875H457.973Z" stroke="#2300F7" stroke-miterlimit="10"/>
<path d="M535.905 478.64H594.714L592.909 490.559H519.388L528.402 430.956H601.924L600.109 442.875H541.289L539.525 454.794H598.344L596.529 466.713H537.72L535.905 478.64Z" stroke="#2300F7" stroke-miterlimit="10"/>
<path d="M637.939 457.21H0.162354V569.824H637.939V457.21Z" fill="#141720"/>
<path d="M56.021 490.098L50.6268 525.863H94.7439L100.138 490.098H56.021ZM43.1337 478.179H116.655L107.641 537.782H83.1342L96.0215 549.701H75.2355L62.3481 537.782H34.1196L43.1337 478.179Z" stroke="#2300F7" stroke-miterlimit="10"/>
<path d="M126.45 478.179H141.163L133.954 525.855H178.071L185.27 478.179H199.972L190.958 537.782H117.436L126.45 478.179Z" stroke="#2300F7" stroke-miterlimit="10"/>
<path d="M215.465 537.782H200.763L209.777 478.179H224.479L215.465 537.782Z" stroke="#2300F7" stroke-miterlimit="10"/>
<path d="M280.896 490.098H232.469L234.284 478.179H318.199L252.181 525.855H300.607L298.792 537.782H214.877L280.896 490.098Z" stroke="#2300F7" stroke-miterlimit="10"/>
<path d="M379.513 490.098L372.314 537.782H357.601L364.81 490.098H335.406L337.221 478.179H410.743L408.928 490.098H379.513Z" stroke="#2300F7" stroke-miterlimit="10"/>
<path d="M426.226 537.782H411.523L420.538 478.179H435.25L426.226 537.782Z" stroke="#2300F7" stroke-miterlimit="10"/>
<path d="M457.942 490.098L450.733 537.782H436.031L445.045 478.179H518.567L509.553 537.782H494.85L502.049 490.098H487.347L480.138 537.782H465.435L472.645 490.098H457.942Z" stroke="#2300F7" stroke-miterlimit="10"/>
<path d="M535.875 525.855H594.694L592.879 537.782H519.357L528.371 478.179H601.893L600.078 490.098H541.259L539.495 502.017H598.314L596.499 513.936H537.69L535.875 525.855Z" stroke="#2300F7" stroke-miterlimit="10"/>
<path d="M637.898 506.711H0.121582V619.324H637.898V506.711Z" fill="#141720"/>
<path d="M55.9805 539.599L50.5863 575.364H94.7034L100.098 539.599H55.9805ZM43.0932 527.68H116.615L107.601 587.283H83.0936L95.981 599.202H75.1949L62.3076 587.283H34.0791L43.0932 527.68Z" stroke="#2300F7" stroke-miterlimit="10"/>
<path d="M126.41 527.68H141.122L133.913 575.364H178.03L185.229 527.68H199.932L190.918 587.283H117.396L126.41 527.68Z" stroke="#2300F7" stroke-miterlimit="10"/>
<path d="M215.425 587.283H200.722L209.736 527.68H224.439L215.425 587.283Z" stroke="#2300F7" stroke-miterlimit="10"/>
<path d="M280.855 539.599H232.429L234.244 527.68H318.159L252.14 575.364H300.566L298.751 587.283H214.837L280.855 539.599Z" stroke="#2300F7" stroke-miterlimit="10"/>
<path d="M379.472 539.599L372.273 587.283H357.561L364.77 539.599H335.365L337.17 527.68H410.692L408.887 539.599H379.472Z" stroke="#2300F7" stroke-miterlimit="10"/>
<path d="M426.185 587.283H411.483L420.497 527.68H435.199L426.185 587.283Z" stroke="#2300F7" stroke-miterlimit="10"/>
<path d="M457.902 539.599L450.693 587.283H435.99L445.004 527.68H518.526L509.512 587.283H494.81L502.009 539.599H487.306L480.097 587.283H465.395L472.604 539.599H457.902Z" stroke="#2300F7" stroke-miterlimit="10"/>
<path d="M535.834 575.364H594.644L592.839 587.283H519.317L528.331 527.68H601.853L600.038 539.599H541.218L539.454 551.518H598.273L596.459 563.445H537.639L535.834 575.364Z" stroke="#2300F7" stroke-miterlimit="10"/>
<path d="M637.838 558.456H0.060791V671.069H637.838V558.456Z" fill="#141720"/>
<path d="M55.9297 591.344L50.5355 627.109H94.6526L100.047 591.344H55.9297ZM43.0424 579.425H116.564L107.55 639.028H83.0428L95.9302 650.946H75.1441L62.2568 639.028H34.0283L43.0424 579.425Z" stroke="#2300F7" stroke-miterlimit="10"/>
<path d="M126.359 579.425H141.061L133.862 627.109H177.969L185.178 579.425H199.881L190.867 639.028H117.345L126.359 579.425Z" stroke="#2300F7" stroke-miterlimit="10"/>
<path d="M215.374 639.028H200.662L209.686 579.425H224.388L215.374 639.028Z" stroke="#2300F7" stroke-miterlimit="10"/>
<path d="M280.804 591.344H232.378L234.193 579.425H318.108L252.079 627.109H300.506L298.691 639.028H214.786L280.804 591.344Z" stroke="#2300F7" stroke-miterlimit="10"/>
<path d="M379.421 591.344L372.212 639.028H357.51L364.719 591.344H335.304L337.119 579.425H410.641L408.826 591.344H379.421Z" stroke="#2300F7" stroke-miterlimit="10"/>
<path d="M426.134 639.028H411.432L420.446 579.425H435.149L426.134 639.028Z" stroke="#2300F7" stroke-miterlimit="10"/>
<path d="M457.841 591.344L450.642 639.028H435.939L444.953 579.425H518.475L509.461 639.028H494.749L501.958 591.344H487.256L480.046 639.028H465.344L472.553 591.344H457.841Z" stroke="#2300F7" stroke-miterlimit="10"/>
<path d="M535.773 627.109H594.593L592.778 639.028H519.256L528.28 579.425H601.802L599.987 591.344H541.167L539.403 603.263H598.223L596.408 615.181H537.588L535.773 627.109Z" stroke="#2300F7" stroke-miterlimit="10"/>
<path d="M637.777 612.387H0V725H637.777V612.387Z" fill="#141720"/>
<path d="M40.2393 623.792H113.481L104.497 697.035H80.083L92.9248 711.683H72.2217L59.3799 697.035H31.2549L40.2393 623.792ZM53.0811 638.441L47.71 682.386H91.6553L97.0264 638.441H53.0811ZM123.247 623.792H137.896L130.718 682.386H174.663L181.841 623.792H196.489L187.505 697.035H114.263L123.247 623.792ZM211.919 697.035H197.271L206.255 623.792H220.903L211.919 697.035ZM277.104 638.441H228.862L230.669 623.792H314.263L248.491 682.386H296.733L294.927 697.035H211.333L277.104 638.441ZM375.347 638.441L368.169 697.035H353.521L360.698 638.441H331.401L333.208 623.792H406.45L404.644 638.441H375.347ZM421.88 697.035H407.231L416.216 623.792H430.864L421.88 697.035ZM453.472 638.441L446.294 697.035H431.646L440.63 623.792H513.872L504.888 697.035H490.239L497.417 638.441H482.769L475.591 697.035H460.942L468.12 638.441H453.472ZM531.108 682.386H589.702L587.896 697.035H514.653L523.638 623.792H596.88L595.073 638.441H536.479L534.722 653.089H593.315L591.509 667.738H532.915L531.108 682.386Z" fill="#2300F7"/>
</g>
<defs>
<clipPath id="clip0_3119_1985">
<rect width="638" height="725" fill="white"/>
</clipPath>
</defs>
</svg>
